<?xml version="1.0" encoding="UTF-8"?>
<!DOCTYPE svg PUBLIC "-//W3C//DTD SVG 1.1//EN" "http://www.w3.org/Graphics/SVG/1.1/DTD/svg11.dtd">
<!-- Creator: CorelDRAW 2019 (64-Bit) -->
<svg xmlns="http://www.w3.org/2000/svg" xml:space="preserve" width="270.933mm" height="203.2mm" version="1.1" style="shape-rendering:geometricPrecision; text-rendering:geometricPrecision; image-rendering:optimizeQuality; fill-rule:evenodd; clip-rule:evenodd"
viewBox="0 0 27093.32 20320"
 xmlns:xlink="http://www.w3.org/1999/xlink">
 <defs>
  <style type="text/css">
   <![CDATA[
    .fil1 {fill:#4FA5BC}
    .fil2 {fill:#50A8BF}
    .fil8 {fill:#5BAEC1}
    .fil0 {fill:#79B6C3}
    .fil10 {fill:#80BFCD}
    .fil7 {fill:#82C1CF}
    .fil9 {fill:#9EC8D3}
    .fil12 {fill:#4FA5BC;fill-rule:nonzero}
    .fil5 {fill:#50A8BF;fill-rule:nonzero}
    .fil11 {fill:#5BAEC1;fill-rule:nonzero}
    .fil3 {fill:#79B6C3;fill-rule:nonzero}
    .fil6 {fill:#80BFCD;fill-rule:nonzero}
    .fil4 {fill:#82C1CF;fill-rule:nonzero}
    .fil13 {fill:#9EC8D3;fill-rule:nonzero}
   ]]>
  </style>
 </defs>
 <g id="Слой_x0020_1">
  <metadata id="CorelCorpID_0Corel-Layer"/>
  <g id="_1349628378144">
   <path class="fil0" d="M11669.58 14049.42c-451.91,-39.95 -905.15,-86.12 -1356.07,-25.3 -77.75,25.5 -153.2,54.53 -224.8,89.22 -87.02,89.48 -148.01,193.74 -182.53,311.26 5.53,79.02 16.06,157.66 28.27,236.15 85.42,168.78 174.15,336.66 257.08,506.14 44.49,90.78 139.54,91.01 238.61,91.47 307.72,1.5 615.35,-16.44 922.81,23.61 176.01,22.87 277.31,-57.03 330.37,-180.26 97.28,-226.01 203.74,-449.78 299.69,-676.09 86.32,-203.32 -33.09,-351.44 -313.43,-376.2z"/>
   <path class="fil0" d="M9889.15 6021.95c-451.9,-39.92 -905.14,-86.12 -1356.07,-25.3 -77.75,25.5 -153.19,54.53 -224.79,89.21 -87.03,89.49 -148.03,193.75 -182.53,311.26 5.53,79.03 16.05,157.66 28.27,236.16 85.42,168.77 174.14,336.66 257.08,506.14 44.49,90.74 139.54,91.01 238.61,91.47 307.72,1.53 615.35,-16.44 922.8,23.57 176.01,22.91 277.32,-56.99 330.36,-180.23 97.3,-226.04 203.75,-449.81 299.7,-676.11 86.32,-203.27 -33.08,-351.41 -313.43,-376.17z"/>
   <path class="fil1" d="M20420.13 20066.44c-670.27,1.63 -1340.65,0.87 -2010.83,6.89 -127.16,1.17 -168.26,-36.72 -183.25,-128.73 -107.35,-659.04 -191.08,-1319.48 -167.63,-1984.61 13.64,-386.06 217.12,-727.97 449.95,-1060.27 137.04,-195.65 268.84,-393.46 405.71,-589.23 110.57,-158.19 203.75,-177 396.08,-77.44 213.47,110.5 336.8,282.7 474.56,442.49 254.75,295.39 562.3,566.9 701.21,916.31 156.32,827.78 47.8,1651.23 -65.8,2474.59z"/>
   <path class="fil0" d="M26491.87 20236.24c-670.28,1.77 -1340.64,0.94 -2010.84,7.53 -127.15,1.27 -168.25,-40.22 -183.23,-141.12 -107.37,-722.32 -191.1,-1446.27 -167.63,-2175.32 13.64,-423.17 217.11,-797.94 449.94,-1162.17 137.05,-214.42 268.83,-431.27 405.71,-645.82 110.56,-173.44 203.75,-194.05 396.09,-84.93 213.46,121.12 336.78,309.9 474.56,485.03 254.75,323.82 562.28,621.36 701.21,1004.4 156.32,907.31 47.79,1809.92 -65.81,2712.4z"/>
   <path class="fil2" d="M2524.56 9908.78c-670.28,1.54 -1340.66,0.83 -2010.84,6.6 -127.16,1.13 -168.26,-35.42 -183.23,-124.23 -107.36,-635.98 -191.1,-1273.35 -167.65,-1915.24 13.64,-372.57 217.13,-702.54 449.95,-1023.18 137.05,-188.83 268.84,-379.71 405.71,-568.66 110.57,-152.67 203.75,-170.85 396.1,-74.7 213.45,106.59 336.78,272.77 474.54,426.97 254.75,285.1 562.3,547.08 701.23,884.31 156.31,798.82 47.79,1593.51 -65.81,2388.13z"/>
   <path class="fil3" d="M17701.74 17820.58c-134.47,-183.6 -330.36,-323.38 -547.58,-448.38 -13.46,0.9 -27.56,-2.26 -40.03,-11.45 -25.78,-18.94 -52.26,-36.56 -79.28,-53.5 -126.17,-48.64 -247.35,-103.03 -358.54,-166.34 -203.31,-69.12 -423.01,-112.46 -644.07,-154.41 -193.04,-0.8 -381.2,36.72 -554.99,128.87 -269.81,286.43 -471.6,602.24 -631.39,935.9 -56.27,117.48 -62.42,230.43 51.09,336.97 286.22,268.67 567.65,540.22 851.55,810.23 68.67,65.31 154.89,108.3 270.36,104.57 376.3,-12.12 752.59,-23.84 1128.61,-38.69 140.27,-5.52 245.31,-69.4 230.6,-171.34 -49.67,-343.19 132.14,-644.22 269.9,-955.18 49.31,-111.42 68.13,-217.39 53.77,-317.25z"/>
   <path class="fil4" d="M9347.45 9026.14c-134.55,-183.62 -330.46,-323.38 -547.66,-448.38 -13.38,0.9 -27.55,-2.3 -40.04,-11.48 -25.68,-18.91 -52.26,-36.52 -79.18,-53.46 -126.18,-48.61 -247.45,-103.04 -358.55,-166.39 -203.3,-69.07 -423.11,-112.45 -644.07,-154.39 -193.13,-0.74 -381.28,36.75 -554.97,128.89 -269.92,286.43 -471.7,602.24 -631.5,935.91 -56.26,117.48 -62.42,230.44 51.09,336.96 286.24,268.68 567.65,540.23 851.57,810.23 68.65,65.32 154.88,108.29 270.35,104.56 376.29,-12.12 752.58,-23.84 1128.61,-38.68 140.26,-5.53 245.3,-69.41 230.59,-171.34 -49.67,-343.18 132.14,-644.21 269.91,-955.18 49.4,-111.38 68.22,-217.38 53.85,-317.25z"/>
   <path class="fil5" d="M11721.03 12366.39c-134.46,-183.59 -330.37,-323.38 -547.58,-448.38 -13.47,0.9 -27.55,-2.27 -40.04,-11.48 -25.77,-18.94 -52.26,-36.52 -79.28,-53.47 -126.16,-48.63 -247.35,-103.03 -358.54,-166.35 -203.29,-69.11 -423.01,-112.45 -644.06,-154.39 -193.05,-0.77 -381.19,36.72 -554.98,128.86 -269.83,286.42 -471.61,602.25 -631.41,935.91 -56.27,117.48 -62.41,230.43 51.09,336.95 286.24,268.69 567.65,540.24 851.57,810.25 68.65,65.31 154.88,108.28 270.36,104.55 376.28,-12.1 752.58,-23.83 1128.6,-38.68 140.26,-5.52 245.3,-69.41 230.59,-171.34 -49.67,-343.18 132.14,-644.22 269.9,-955.18 49.32,-111.43 68.14,-217.38 53.78,-317.25z"/>
   <path class="fil5" d="M14826.6 10406.96c153.46,-116.02 249.41,-256.49 325.81,-405.53 -3.92,-7.26 -3.92,-15.85 2.5,-24.86 13.11,-18.58 24.8,-37.32 35.67,-56.13 20.42,-81.23 47.71,-160.92 86.13,-237.05 23.64,-128.8 17.84,-260.97 10.27,-393.53 -42.36,-107.82 -121.99,-204.33 -252.98,-280.56 -346.78,-86.29 -707.63,-128.13 -1076.98,-142.55 -130,-5.06 -244.32,16.79 -325.46,103.87 -204.57,219.68 -413.04,437.26 -619.45,655.94 -49.94,52.86 -73.66,110.52 -44.15,174.04 96.3,207.05 192.25,414.14 291.22,620.44 36.93,76.9 124.31,121.18 222.84,90.18 332.06,-104.46 673.68,-70.47 1015.37,-63.25 122.42,2.59 232.63,-10.62 329.21,-41.01z"/>
   <path class="fil6" d="M23679.95 19573.45c-57.33,-71.28 -99.34,-148.34 -134.38,-228.03 -306.2,-408.6 -673.04,-787.47 -1031.86,-1169.57 -263.84,-280.94 -513.87,-302.91 -848.61,-106.53 -127.68,163.02 -255.37,326.08 -382.79,488.99 -310.58,432.4 -537.96,881.84 -558.57,1383.18 -5.07,125.04 28.72,156.3 187.27,155.64 887.93,-4.03 1775.87,-6.66 2663.64,1.63 209.54,2 229.69,-67.04 218.46,-192.88 -10.26,-116.05 -77.4,-221.64 -113.16,-332.43z"/>
   <path class="fil0" d="M8050.68 18039.89c-148.91,-426.61 -129.39,-447.31 448.16,-482.07 112.72,-6.79 225.06,-16.05 337.6,-24.57 406.07,-30.82 575.4,46.81 721.36,337.62 226.94,452.41 115.57,893.44 -85.42,1330.73 -9.89,21.38 -23.8,41.68 -35.13,62.72 -251.9,468.95 -269.73,474.51 -949.38,448.48 -154.44,-5.86 -200.18,-59.13 -185.38,-160.92 21.31,-146.68 50.65,-292.69 69.38,-439.43 32,-251.27 16.05,-498.88 -123.77,-734.17 -65.81,-112.78 -131.62,-225.57 -197.42,-338.39z"/>
   <path class="fil0" d="M14728.87 18907.78c159.97,-85.88 327.6,-58.05 493.54,-14.84 74.38,19.38 100.51,66.62 97.11,123.47 -19.43,324.24 -3.3,647.95 35.13,970.87 11.15,93.24 -54.21,125.53 -157.02,142.34 -32.64,-29.66 -79.99,-18.12 -121.18,-24.46 -159.7,-24.71 -344.64,-50.11 -389.32,-178.21 -55.63,-159.55 -73.56,-327.34 -57.33,-496.71 16.85,-176.48 48.33,-350.15 99.07,-522.46z"/>
   <g>
    <path class="fil4" d="M14503.27 18558.34c-17.57,-27.16 -35.57,-54.23 -54.3,-81.06 -237,-184.28 -473.57,-368.98 -712.9,-551.64 -188.15,-100.77 -365.07,-212.78 -555.8,-310.69 -92.2,-29.73 -185.74,-57.4 -280.08,-83.23 -151.94,1.97 -296.12,34.22 -411.96,118.85 -0.26,0.2 -0.53,0.33 -0.79,0.5 -376.57,313.19 -662.17,669.88 -893.65,1053.32 -114.86,190.08 -103.7,359.32 119.3,501.94 256.54,243.15 512.64,486.46 769.61,729.44 83.82,79.23 187.79,125.71 328.86,123.91 375.85,-4.79 751.95,-2.39 1127.72,-9.83 228.54,-4.56 320.66,-71.07 307.1,-243.7 -18.91,-240.69 70.62,-457.61 197.51,-671.59 45.84,-77.3 84.62,-157.53 117.97,-238.42 5.07,-12.19 8.46,-23.67 12.84,-35.56 2.94,-104.33 -23.81,-205.12 -71.43,-302.24z"/>
   </g>
   <path class="fil7" d="M11609.56 17440.98c-363.17,-32.06 -727.07,-68.18 -1089.98,-49.74 -122.7,20.44 -242.1,48.27 -359.71,81.69 -145.25,103.14 -352.39,234.63 -377.63,379.41 4.73,18.74 10.96,37.41 19.97,55.89 106.12,217.78 222.84,432.57 329.31,650.25 44.49,90.78 139.54,91.04 238.61,91.52 307.72,1.49 615.35,-16.45 922.81,23.56 176.01,22.9 277.31,-56.99 330.37,-180.27 97.28,-225.99 203.74,-449.77 299.69,-676.07 86.31,-203.3 -33.09,-351.41 -313.44,-376.24z"/>
   <path class="fil0" d="M15719.44 15631.58c305.58,26.99 611.88,57.39 917.36,41.85 103.26,-17.21 203.76,-40.59 302.72,-68.75 122.26,-86.79 296.58,-197.44 317.8,-319.28 -4.01,-15.78 -9.27,-31.49 -16.75,-47.04 -89.35,-183.25 -187.62,-364.09 -277.23,-547.25 -37.37,-76.4 -117.34,-76.63 -200.72,-77.03 -259.04,-1.24 -517.89,13.88 -776.65,-19.84 -148.21,-19.25 -233.45,48 -278.04,151.73 -81.94,190.22 -171.47,378.54 -252.25,568.99 -72.59,171.07 27.82,295.74 263.76,316.62z"/>
   <path class="fil8" d="M16061.84 5916.81c305.59,26.97 611.88,57.4 917.37,41.85 103.17,-17.21 203.75,-40.58 302.73,-68.74 122.15,-86.79 296.49,-197.48 317.8,-319.32 -4.01,-15.78 -9.37,-31.49 -16.86,-47 -89.35,-183.3 -187.52,-364.09 -277.13,-547.29 -37.36,-76.36 -117.44,-76.6 -200.81,-76.99 -258.94,-1.27 -517.89,13.84 -776.66,-19.84 -148.1,-19.28 -233.35,47.97 -278.02,151.7 -81.87,190.21 -171.47,378.53 -252.27,568.99 -72.57,171.1 27.92,295.74 263.85,316.64z"/>
   <path class="fil0" d="M21528.5 10610.06c390.2,13.45 781.28,28.59 1171.4,20.83 131.8,-8.58 260.19,-20.2 386.55,-34.25 156.04,-43.2 378.7,-98.33 405.8,-159.02 -5.09,-7.86 -11.86,-15.69 -21.41,-23.44 -114.13,-91.27 -239.5,-181.32 -353.99,-272.57 -47.71,-38.04 -149.89,-38.18 -256.36,-38.34 -330.73,-0.64 -661.26,6.89 -991.73,-9.89 -189.13,-9.62 -298,23.87 -354.97,75.57 -104.61,94.73 -219.01,188.5 -322.18,283.38 -92.64,85.22 35.58,147.3 336.89,157.73z"/>
   <path class="fil0" d="M25375.31 2746.57c305.58,26.97 611.88,57.4 917.36,41.84 103.17,-17.21 203.76,-40.57 302.72,-68.74 122.17,-86.78 296.5,-197.47 317.8,-319.31 -4.01,-15.78 -9.35,-31.49 -16.85,-47 -89.34,-183.3 -187.52,-364.1 -277.14,-547.25 -37.36,-76.41 -117.43,-76.64 -200.79,-77.04 -258.96,-1.26 -517.9,13.85 -776.67,-19.84 -148.11,-19.27 -233.36,47.97 -278.03,151.7 -81.85,190.22 -171.46,378.54 -252.25,569.02 -72.59,171.08 27.91,295.72 263.85,316.62z"/>
   <path class="fil7" d="M20434.49 17044.56c-189.21,-268.71 -375.76,-538.56 -569.16,-805.68 -58.51,-80.76 -64.84,-120.94 77.48,-155.22 259.58,-62.52 502.11,-158.1 746.07,-250.31 220.79,-83.49 368.98,-42.75 401.53,134.79 80.96,442.45 362.73,815.43 661.54,1188.04 208.74,260.39 168.61,373.48 -153.82,558.43 -113.95,65.49 -238.88,120.98 -347.04,191.13 -115.29,74.69 -177,52.43 -240.04,-39.39 -188.77,-275.24 -383.87,-548.01 -576.56,-821.79z"/>
   <g>
    <path class="fil9" d="M15605.13 13914.53c-5.44,-211.33 -147.57,-354.8 -405.09,-423.84 -403.94,-108.3 -813.57,-205.47 -1235.25,-267.36 -258.6,-37.98 -523.79,-72.57 -780.86,-2.16 -358.46,98.14 -718.43,100.17 -1088.74,50 -424.54,-57.38 -504.08,3.46 -456.02,322.77 26.66,35.2 53.5,70.32 80.25,105.44 14.09,10.62 28.19,21.27 42.36,31.88 28.26,2.54 44.05,14.32 47.79,35.26 82.04,28.94 181.46,44.98 178.7,137.16l0.54 0.53c15.68,-4.67 31.38,-9.32 47.07,-14.02 22.57,13.12 45.03,26.14 67.68,39.22 269.39,136.92 466.7,316.39 573.53,549.45 88.1,177.77 -22.91,342.64 -58.49,512.42l4.72 0.47c-17.92,11.78 -35.84,23.6 -53.86,35.42 -88.53,200.3 -13.19,313.62 250.84,342.13 621.41,66.97 1248.37,14.01 1871.48,40.8 256.17,10.99 438.97,-62.98 581.19,-207.82 161.49,-164.49 297.91,-340.12 346.6,-546.16 95.59,-248.21 116.1,-495.72 -14.44,-741.59z"/>
    <path class="fil9" d="M11764.99 13733.73c-1.08,-0.83 -2.14,-1.63 -3.21,-2.47 -0.09,0 -0.18,-0.02 -0.26,-0.02l3.47 2.49z"/>
    <path class="fil9" d="M11810.02 13767.89c-0.09,-0.51 -0.36,-0.87 -0.45,-1.37 -0.89,-0.33 -1.86,-0.59 -2.76,-0.92l3.21 2.29z"/>
    <path class="fil9" d="M11719.6 13699.65c-0.09,-0.07 -0.09,-0.18 -0.18,-0.27 -1.06,-0.77 -2.04,-1.54 -3.12,-2.33l3.3 2.6z"/>
   </g>
   <g>
    <path class="fil10" d="M22697.49 8850.17c-4.01,-155.99 -108.87,-261.92 -298.98,-312.89 -298.18,-79.93 -600.65,-151.67 -911.93,-197.37 -190.91,-28.03 -386.63,-53.53 -576.38,-1.6 -264.65,72.48 -530.37,73.96 -803.76,36.96 -313.35,-42.39 -372.1,2.52 -336.62,238.25 19.71,25.96 39.5,51.89 59.21,77.83 10.44,7.86 20.87,15.71 31.31,23.54 20.86,1.86 32.54,10.58 35.3,26.03 60.55,21.37 133.93,33.18 131.88,101.27l0.44 0.36c11.51,-3.42 23.11,-6.89 34.69,-10.35 16.68,9.69 33.27,19.3 50.03,28.96 198.84,101.06 344.46,233.56 423.38,405.6 64.99,131.23 -16.96,252.94 -43.16,378.3l3.46 0.34c-13.27,8.69 -26.47,17.41 -39.76,26.13 -65.36,147.87 -9.71,231.53 185.11,252.57 458.78,49.43 921.57,10.32 1381.58,30.13 189.12,8.09 324.04,-46.51 429.08,-153.43 119.13,-121.42 219.89,-251.07 255.83,-403.18 70.53,-183.23 85.68,-365.95 -10.71,-547.45z"/>
    <path class="fil9" d="M19862.74 8716.72c-0.8,-0.6 -1.6,-1.2 -2.4,-1.83 -0.1,0 -0.1,0 -0.19,0l2.59 1.83z"/>
    <path class="fil9" d="M19895.91 8741.92c0,-0.37 -0.18,-0.64 -0.27,-1 -0.71,-0.27 -1.42,-0.43 -2.05,-0.67l2.32 1.67z"/>
    <path class="fil9" d="M19829.21 8691.54c-0.09,-0.05 -0.09,-0.12 -0.18,-0.19 -0.71,-0.57 -1.51,-1.13 -2.23,-1.7l2.41 1.89z"/>
   </g>
   <g>
    <path class="fil9" d="M22042.11 5631.39c-5.44,-211.32 -147.59,-354.8 -405.09,-423.85 -403.94,-108.32 -813.58,-205.46 -1235.26,-267.38 -258.59,-37.94 -523.77,-72.57 -780.84,-2.12 -358.46,98.13 -718.44,100.13 -1088.76,49.99 -424.52,-57.39 -504.06,3.46 -456,322.78 26.66,35.16 53.41,70.31 80.25,105.4 14.1,10.64 28.18,21.3 42.27,31.89 28.35,2.53 44.14,14.34 47.88,35.28 82.04,28.9 181.37,44.94 178.7,137.16l0.53 0.53c15.69,-4.66 31.39,-9.32 47.08,-14.01 22.55,13.08 45.03,26.13 67.68,39.21 269.37,136.92 466.7,316.36 573.54,549.44 88.09,177.77 -22.92,342.62 -58.5,512.4l4.72 0.46c-17.92,11.79 -35.84,23.65 -53.86,35.43 -88.54,200.34 -13.2,313.66 250.83,342.15 621.42,66.98 1248.36,13.99 1871.48,40.82 256.17,10.98 438.97,-62.99 581.19,-207.87 161.48,-164.44 297.91,-340.09 346.6,-546.15 95.58,-248.2 116.09,-495.68 -14.44,-741.56z"/>
    <path class="fil9" d="M18201.98 5450.56c-1.08,-0.79 -2.24,-1.6 -3.3,-2.46 0,0 -0.09,0 -0.18,0l3.48 2.46z"/>
    <path class="fil9" d="M18247 5484.72c-0.08,-0.51 -0.35,-0.87 -0.44,-1.34 -0.89,-0.33 -1.87,-0.6 -2.77,-0.92l3.21 2.26z"/>
    <path class="fil9" d="M18156.59 5416.47c-0.09,-0.06 -0.18,-0.13 -0.18,-0.26 -1.07,-0.74 -2.13,-1.53 -3.12,-2.3l3.3 2.56z"/>
   </g>
   <path class="fil0" d="M15005.48 16809.86c143.19,36.23 175.12,117.25 139.71,215.32 -60.63,168.05 -127.77,334.83 -195.89,501.29 -46.64,113.98 -158.73,158.35 -310.67,148.53 -193.32,-12.48 -386.27,-27.96 -579.33,-42.14 -162.28,-41.54 -330.28,-60.59 -500.15,-72.48 -194.48,-45.97 -455.38,-30.45 -518.43,-218.94 -79.45,-237.49 -82.29,-480.77 112,-699.48 190.01,-40.15 327.24,75.86 497.12,95.27 443.26,115.91 901.23,75.17 1355.64,72.63z"/>
   <g>
    <path class="fil0" d="M8695.64 15162.96c0.8,0.6 1.69,1.26 2.49,1.9 0.09,0.04 0.18,0.06 0.37,0.09l-2.86 -1.99z"/>
    <path class="fil8" d="M9338.81 15596.19c-183.69,-121.44 -367.55,-242.71 -551.51,-364.12 0.71,0.53 1.42,1.06 2.22,1.66l-3.02 -2.19c0.27,0.14 0.53,0.37 0.8,0.53 -15.52,-11.55 -31.03,-23.17 -46.37,-34.73l2.95 2.11c-15.26,-11.59 -30.5,-23.1 -45.75,-34.59 -157.74,-33.79 -244.14,-139.45 -365.59,-209.5 -182.98,-105.46 -365.41,-140.87 -572.81,-48.74 -21.06,30.24 -53.24,49.18 -98.54,54.67l-1.25 0.87c-16.76,10.25 -33.43,20.54 -50.28,30.82 -29.52,12.05 -59.04,24.14 -88.63,36.33l4.36 -0.97c-3.21,38.34 -46.19,55.89 -73.92,81.92 -356.94,334.23 -630.78,704.98 -829.89,1105.59 -60.1,120.98 -104.23,253.4 33.89,370.25 315.65,266.78 630.77,533.83 946.06,800.88 78.92,66.91 173.7,109.48 296.49,102.23 375.31,-22.1 750.35,-45.44 1125.58,-68.27 258.41,-14.12 336.25,-66.85 315.21,-264.2 -22.56,-210.39 38.96,-404.33 133.22,-597.15 49.3,-100.96 100.3,-201.76 140.62,-304.79 103.42,-264.19 42.88,-492.16 -273.84,-658.61z"/>
   </g>
   <g>
    <path class="fil0" d="M3491.05 14753.89c0.82,0.6 1.7,1.27 2.5,1.91 0.09,0.02 0.18,0.06 0.36,0.09l-2.86 -2z"/>
    <path class="fil1" d="M4134.22 15187.13c-183.69,-121.44 -367.55,-242.71 -551.49,-364.13 0.71,0.53 1.42,1.07 2.22,1.67l-3.04 -2.2c0.27,0.14 0.54,0.37 0.82,0.53 -15.53,-11.55 -31.04,-23.16 -46.37,-34.72l2.94 2.1c-15.25,-11.59 -30.51,-23.1 -45.75,-34.58 -157.73,-33.8 -244.14,-139.46 -365.58,-209.5 -182.98,-105.46 -365.43,-140.88 -572.83,-48.74 -21.04,30.23 -53.22,49.18 -98.53,54.67l-1.24 0.87c-16.78,10.25 -33.44,20.53 -50.29,30.82 -29.52,12.05 -59.04,24.13 -88.64,36.31l4.37 -0.96c-3.2,38.35 -46.2,55.9 -73.93,81.93 -356.93,334.22 -630.77,704.98 -829.88,1105.58 -60.1,120.97 -104.24,253.41 33.88,370.25 315.66,266.78 630.78,533.84 946.08,800.88 78.91,66.92 173.7,109.49 296.49,102.24 375.31,-22.1 750.34,-45.44 1125.57,-68.28 258.4,-14.11 336.24,-66.84 315.2,-264.23 -22.55,-210.35 38.97,-404.29 133.22,-597.11 49.31,-100.96 100.32,-201.77 140.62,-304.8 103.44,-264.19 42.89,-492.16 -273.84,-658.6z"/>
   </g>
   <g>
    <path class="fil9" d="M16008.61 13965.19c-0.62,-0.76 -1.24,-1.52 -1.78,-2.3 -0.09,-0.05 -0.18,-0.12 -0.35,-0.16l2.13 2.46z"/>
    <path class="fil9" d="M15537.72 13422.3c135.26,152.81 270.79,305.54 406.33,458.41 -0.53,-0.67 -1.06,-1.33 -1.59,-2.04l2.13 2.7c-0.18,-0.2 -0.36,-0.43 -0.54,-0.66 10.88,14.15 21.86,28.36 32.73,42.47l-2.14 -2.56c10.7,14.09 21.48,28.2 32.19,42.27 140.62,63.12 187.43,181.91 280.44,273.05 140.07,137.25 303.96,206.8 536.34,157.89 30.76,-25.09 68.39,-37.14 114.14,-33.75l1.42 -0.53c19.8,-6.7 39.41,-13.39 59.3,-20.08 32.73,-5.95 65.37,-11.88 98.17,-17.91l-4.54 0.03c16.4,-36.38 64.02,-45 99.87,-64.78 460.73,-253.77 853.87,-558.86 1185.22,-907.27 100.05,-105.17 188.6,-224.51 95.77,-364.09 -212.31,-318.79 -424,-637.67 -635.77,-956.58 -53.06,-79.9 -129.83,-139.39 -250.92,-156.14 -370.14,-51.3 -740.45,-101.32 -1110.77,-151.83 -254.48,-36.38 -348.02,-0.53 -396.18,194.15 -51.18,207.6 -177.98,382.96 -335.89,550.98 -82.67,87.95 -166.93,175.43 -241.65,267.22 -191.53,235.12 -212.23,467.02 35.94,689.05z"/>
   </g>
   <g>
    <path class="fil9" d="M8969.56 3993.3c0.9,-0.46 1.61,-0.9 2.41,-1.29 0,-0.1 0.09,-0.14 0.17,-0.24l-2.58 1.53z"/>
    <path class="fil2" d="M9515.53 3650.19c-153.36,98.2 -306.64,196.6 -460.01,295.01 0.62,-0.37 1.33,-0.74 2.05,-1.13l-2.76 1.59c0.18,-0.13 0.44,-0.3 0.71,-0.46 -14.44,8.13 -28.81,16.31 -43.16,24.4l2.59 -1.6c-14.35,7.96 -28.72,15.99 -42.98,24.01 -54.66,92.28 -179.86,133.05 -270.1,199.17 -135.88,99.63 -195.18,206.76 -117.79,343.54 30.68,16.22 47.72,37.96 48.69,66.22l0.8 0.84c9.28,11.34 18.63,22.66 28,34.12 9.9,19.3 19.71,38.65 29.7,58.05l-0.54 -2.76c41.56,6.29 55.91,34.45 81.23,54.29 325.12,255.13 699.54,463.73 1114.88,630.18 125.46,50.2 265.19,92.01 408.48,21.04 327.06,-162.32 654.49,-324.28 981.83,-486.33 82.04,-40.54 139.29,-93.51 145.16,-169.15 18.11,-231.16 34.78,-462.32 52.08,-693.52 13.73,-159.06 -35.23,-212.42 -253.24,-221.81 -232.46,-9.95 -437.45,-69.31 -637.64,-148.4 -104.78,-41.42 -209.19,-83.87 -317.35,-120.05 -277.05,-92.74 -533.06,-81.52 -750.63,92.75z"/>
   </g>
   <g>
    <path class="fil0" d="M10393.4 10897.38c-0.62,-0.77 -1.24,-1.53 -1.79,-2.33 -0.07,-0.03 -0.17,-0.1 -0.35,-0.14l2.14 2.47z"/>
    <path class="fil10" d="M9922.5 10354.5c135.28,152.79 270.81,305.53 406.35,458.39 -0.55,-0.66 -1.08,-1.33 -1.61,-2.02l2.14 2.69c-0.18,-0.2 -0.36,-0.43 -0.53,-0.67 10.87,14.15 21.84,28.37 32.71,42.48l-2.13 -2.57c10.7,14.12 21.49,28.17 32.18,42.25 140.62,63.16 187.45,181.93 280.44,273.07 140.09,137.27 303.98,206.8 536.34,157.9 30.78,-25.1 68.4,-37.19 114.15,-33.72l1.42 -0.57c19.8,-6.69 39.42,-13.38 59.3,-20.07 32.73,-5.92 65.36,-11.92 98.17,-17.91l-4.54 0.06c16.41,-36.42 64.02,-45.01 99.87,-64.81 460.73,-253.76 853.87,-558.87 1185.22,-907.25 100.05,-105.18 188.59,-224.56 95.78,-364.11 -212.32,-318.79 -424,-637.66 -635.79,-956.61 -53.04,-79.9 -129.82,-139.36 -250.92,-156.09 -370.13,-51.3 -740.45,-101.35 -1110.77,-151.85 -254.47,-36.38 -348.02,-0.53 -396.17,194.15 -51.18,207.6 -177.98,382.97 -335.89,551.02 -82.66,87.91 -166.93,175.43 -241.66,267.18 -191.53,235.12 -212.21,467.02 35.94,689.06z"/>
   </g>
   <g>
    <path class="fil0" d="M22132.35 14852.1c0.89,-0.36 1.69,-0.77 2.49,-1.1 0.09,-0.06 0.17,-0.13 0.17,-0.24l-2.66 1.34z"/>
    <path class="fil7" d="M22724.59 14559.35c-166.64,84.06 -333.21,168.28 -499.96,252.54 0.71,-0.34 1.44,-0.67 2.15,-1.01l-2.95 1.34c0.27,-0.1 0.53,-0.21 0.8,-0.33 -15.52,6.75 -30.94,13.58 -46.46,20.37l2.86 -1.33c-15.43,6.65 -30.76,13.38 -46.19,20.07 -68.13,86.62 -198.22,116.25 -297.56,173.94 -149.53,86.89 -224.52,187.83 -168.97,329.64 27.91,18.67 41.37,41.61 38.07,69.64l0.54 0.9c7.57,12.01 15.07,24 22.56,36.12 6.77,19.93 13.64,39.88 20.51,59.95l-0.09 -2.8c40.03,9.75 49.93,38.85 71.96,60.59 282.48,280 620.79,518.19 1006.08,718.2 116.28,60.34 248.06,113.58 400.64,55.62 348.29,-132.63 696.76,-264.85 1045.24,-397.18 87.29,-33.12 151.93,-80.6 169.32,-154.87 53.32,-227.06 105.21,-454.2 157.56,-681.3 37.89,-156.09 -2.22,-213.06 -216.4,-240.95 -228.46,-29.66 -422.05,-105.79 -607.87,-201.14 -97.19,-49.83 -194.03,-100.73 -295.41,-145.71 -259.75,-115.31 -514.59,-126.07 -756.43,27.7z"/>
   </g>
   <g>
    <path class="fil0" d="M23185.69 8952.94c0.63,-0.63 1.25,-1.2 1.87,-1.79 0,-0.11 0,-0.18 0,-0.31l-1.87 2.1z"/>
    <path class="fil0" d="M23601.49 8490.15c-116.11,131.86 -232.03,263.88 -348.2,395.91 0.6,-0.53 1.15,-1.04 1.68,-1.6l-2.23 2.2c0.27,-0.17 0.44,-0.4 0.55,-0.6 -11.25,11.26 -22.57,22.61 -33.9,33.86l2.06 -2.17c-11.41,11.09 -22.66,22.24 -33.89,33.4 -19.26,104.55 -129.29,172.6 -194.38,258.52 -97.92,129.46 -116.01,249.97 14.79,370.71 37.01,9.69 62.6,27.87 74.46,56.06l1.16 0.71c13.73,9.38 27.55,18.71 41.37,28.22 17.39,17.28 34.77,34.59 52.35,51.97l-1.61 -2.7c44.22,-2.66 69.55,22.57 102.72,37.05 425.51,186.19 882.68,315.02 1364.64,392.56 145.52,23.43 302.19,35.25 418.73,-67.05 265.91,-233.76 532.16,-467.29 798.51,-700.84 66.61,-58.47 103.7,-124.08 80.25,-201.35 -71.25,-236.25 -144.02,-472.25 -216.24,-708.33 -47.88,-162.86 -117.61,-205.94 -340.45,-168.25 -237.54,40.21 -466.61,24.83 -698.44,-11.48 -121.28,-19.01 -242.72,-39.09 -365.42,-52.11 -314.41,-33.35 -567.37,33.16 -718.51,255.31z"/>
   </g>
   <path class="fil1" d="M17913.79 16015.87c-66.34,-252.5 -72.32,-250.04 -404.74,-254.76 -119.13,-1.66 -238.62,2.79 -358.01,5.13 -6.15,6.72 -16.05,11.95 -30.58,13.98 -295.6,41.15 -624.19,24.97 -915.05,-50.81 -187.7,-3.76 -375.22,-13.91 -562.83,-21.56 -119.31,-2.7 -238.7,-4.73 -357.92,-8.26 -111.73,-3.26 -217.57,12.52 -263.95,96.87 -119.75,217.91 -198.12,438.83 -7.93,660.07 85.95,137.72 242.63,193.82 432.11,209.03 253.69,20.3 507.29,42.04 761.67,56.42 434.34,24.44 868.42,60.89 1305.07,42.61 203.66,-8.52 371.03,-65.14 417.22,-232.06 47.72,-172.07 58.68,-345.62 -15.06,-516.66z"/>
   <path class="fil0" d="M17171.01 14666.21c433.18,424.68 823.65,870.76 1181.93,1332.52 85.61,110.22 208.56,150.1 361.04,107.86 262.88,-72.9 522.71,-155.73 639.43,-371.78 97.02,-120.34 72.5,-244.48 -7.13,-356.24 -261.62,-366.88 -521.28,-735.7 -869.49,-1062.77 -95.31,-89.42 -214.36,-160.19 -389.04,-122.6 -309.77,14.48 -586.46,101.16 -847.72,220.64 -144.01,65.85 -175.48,148.04 -69.02,252.37z"/>
   <path class="fil0" d="M14159.62 15626.25l-0.27 0.41c-35.76,-7.23 -71.52,-14.42 -107.28,-21.74 -434.95,-94.68 -866.9,-6.13 -1299.27,16.21 -89.53,4.62 -122.97,67.01 -84.62,130 128.76,211.11 230.94,432.62 410.98,624.27 85.86,91.38 199.28,154.64 355.25,161.69 301.21,113.65 591.19,26.23 642.01,-214.12 48.68,-229.63 138.39,-459.16 83.2,-696.72z"/>
   <path class="fil2" d="M4937.45 14092.26l-0.26 0.41c-35.75,-7.23 -71.51,-14.42 -107.28,-21.74 -434.96,-94.68 -866.89,-6.13 -1299.26,16.21 -89.53,4.62 -122.97,67.01 -84.62,130 128.75,211.11 230.94,432.62 410.98,624.27 85.86,91.38 199.28,154.64 355.24,161.69 301.21,113.65 591.18,26.23 642.02,-214.12 48.68,-229.63 138.38,-459.16 83.18,-696.72z"/>
   <path class="fil0" d="M2386.53 17159.31l-0.45 0.13c-15.87,-18.2 -31.84,-36.38 -47.7,-54.62 -188.6,-225.37 -503.9,-342.23 -773,-498.02 -55.74,-32.26 -119.04,-8.72 -140.62,43.18 -72.5,174.04 -167.81,343.81 -196.53,526.48 -13.64,87.12 8.55,168.47 94.96,233.56 97.02,184.22 328.23,246.27 526.46,125.23 189.39,-115.58 402.77,-215.12 536.88,-375.94z"/>
   <path class="fil7" d="M10961.23 8165.67l-0.72 0.27c-30.14,-26.51 -60.37,-52.94 -90.42,-79.53 -360.23,-329.27 -892.21,-467.15 -1361.41,-673.82 -97.19,-42.81 -191.36,4.09 -211.61,89.75 -67.85,287.09 -173.24,570.88 -169.41,865.14 1.78,140.31 59.02,266.11 213.83,356.33 203.75,277.8 587.43,341.38 869.29,119.4 269.39,-212.02 581.03,-402.13 750.45,-677.54z"/>
   <path class="fil2" d="M12679.23 16296.08c-24.25,-38.79 -49.4,-77.37 -75.07,-115.85 -29.78,-121.91 -61.18,-243.55 -89,-365.72 -79.98,-351.15 -194.65,-422.12 -668.23,-382.73 -532.15,44.3 -1058.33,89.65 -1588.54,-32.53 -326.43,-75.24 -454.83,11.26 -427.02,272.34 36.12,338.7 -16.05,666.53 -137.67,991 -41.28,109.86 -54.12,222.58 -47.26,336.7 2.4,40.68 11.59,77.93 30.41,110.45 119.31,86.09 290.78,135.96 466.17,161.33 0.35,-0.3 0.8,-0.6 1.15,-0.9 25.15,-19.35 57.53,-13.09 76.16,2.42 670.62,0.67 1341.27,1.04 2011.91,0.07 21.66,-1.66 43.32,-3.39 64.91,-5.12 30.58,-6.43 60.54,-14.49 90.06,-23.47 203.22,-82.03 344.72,-239.32 429.61,-418.89 -17.12,-181 -74.19,-355.2 -137.59,-529.1z"/>
   <path class="fil2" d="M8119.34 18367.3c-64.56,-110.92 -129.11,-221.84 -193.68,-332.64 -243.07,-357.8 -543.39,-678.11 -1002.69,-901.55 -147.22,-71.63 -237.1,-187.55 -331.35,-298.4 -211.96,-249.62 -370.94,-248.15 -577.55,-1.1 -145.69,220 -291.49,440.06 -437.11,660.16 -12.47,19.31 -24.87,38.65 -37.27,57.96 -419.97,627.68 -480.87,1287.88 -323.14,1969.59 33.8,406 344.55,666.86 1480.55,634.83 779.16,-21.94 1480.38,-125.97 1487.6,-723.31 93.27,-357.8 90.95,-712.58 -65.36,-1065.54z"/>
   <path class="fil3" d="M9768.24 15316.69c-246.73,214.09 -348.2,136.09 -740.09,-115.62 -391.81,-251.7 -925.58,-581.76 -678.93,-795.86 246.64,-214.08 764.25,-183.58 1156.07,68.12 391.89,251.71 509.6,629.28 262.95,843.36z"/>
   <path class="fil3" d="M6572.45 13919.05c-246.74,214.1 -348.2,136.1 -740.1,-115.61 -391.81,-251.7 -925.57,-581.77 -678.93,-795.86 246.63,-214.08 764.26,-183.59 1156.08,68.11 391.89,251.71 509.59,629.28 262.95,843.36z"/>
   <path class="fil3" d="M2532.22 6300.64c-246.72,214.06 -348.2,136.1 -740.09,-115.64 -391.81,-251.67 -925.57,-581.78 -678.92,-795.83 246.63,-214.11 764.25,-183.63 1156.06,68.11 391.89,251.67 509.6,629.25 262.95,843.36z"/>
   <path class="fil3" d="M5080.21 17727.26c-367.02,68.46 -389.48,-38.98 -514.86,-413.45 -125.19,-374.44 -305.75,-874.06 61.17,-942.5 366.93,-68.41 765.96,179.63 891.25,554.07 125.27,374.44 -70.62,733.48 -437.56,801.88z"/>
   <path class="fil5" d="M834.55 18340.86c-366.92,68.45 -389.49,-39.01 -514.77,-413.46 -125.28,-374.44 -305.85,-874.05 61.09,-942.49 367,-68.44 765.94,179.59 891.23,554.07 125.28,374.41 -70.53,733.44 -437.55,801.88z"/>
   <path class="fil3" d="M4469.95 13866.59c-367.02,68.42 -389.5,-39.02 -514.86,-413.49 -125.2,-374.44 -305.75,-874.05 61.17,-942.5 366.93,-68.41 765.95,179.64 891.23,554.08 125.29,374.41 -70.62,733.47 -437.54,801.91z"/>
   <path class="fil3" d="M11660.12 7782.04c-367.01,68.44 -389.48,-38.98 -514.85,-413.46 -125.2,-374.44 -305.76,-874.06 61.17,-942.5 366.93,-68.44 765.96,179.63 891.24,554.08 125.28,374.44 -70.62,733.47 -437.56,801.88z"/>
   <path class="fil3" d="M11309.17 19073.76c71.86,252.78 -60.46,264.66 -523.07,337.96 -462.69,73.31 -1080.37,180.3 -1152.23,-72.43 -71.79,-252.77 244.94,-517.09 707.63,-590.39 462.53,-73.35 895.88,72.06 967.67,324.86z"/>
   <path class="fil3" d="M12382.83 13065.71c-672.95,-200.87 -546.69,-386.66 -179.13,-1073.46 367.64,-686.7 837.29,-1614.22 1510.26,-1413.42 672.95,200.87 920.48,920.3 552.93,1607.03 -367.56,686.74 -1211.09,1080.71 -1884.06,879.85z"/>
   <path class="fil11" d="M12487.08 8748.24c-673.04,-200.87 -546.7,-386.66 -179.15,-1073.46 367.56,-686.71 837.21,-1614.22 1510.16,-1413.42 673.06,200.88 920.59,920.33 552.95,1607.04 -367.56,686.73 -1211.01,1080.71 -1883.96,879.84z"/>
   <path class="fil11" d="M2615.15 11918.94c723.7,-29.49 708.98,111.13 745.45,608.64 36.29,497.45 109.95,1163.34 -613.65,1192.87 -723.7,29.49 -1339.77,-349.85 -1376.13,-847.32 -36.4,-497.45 520.64,-924.7 1244.33,-954.19z"/>
   <path class="fil3" d="M3721.82 9873.1c-673.04,-200.87 -546.68,-386.63 -179.13,-1073.46 367.54,-686.7 837.2,-1614.22 1510.15,-1413.41 673.04,200.87 920.57,920.32 552.93,1607.06 -367.55,686.73 -1211,1080.68 -1883.95,879.81z"/>
   <path class="fil3" d="M17367.18 19814.07c28.27,281.63 -117.35,280.03 -632.83,308.99 -515.39,28.9 -1205.46,77.3 -1233.72,-204.3 -28.36,-281.63 366.47,-533.33 881.95,-562.23 515.4,-28.93 956.25,175.9 984.6,457.54z"/>
   <path class="fil12" d="M20015.84 15486.87c-325.99,143.31 -388.33,45.04 -650.67,-287.56 -262.23,-332.59 -624.97,-773.55 -299.06,-916.83 325.99,-143.28 802.78,10.15 1065.02,342.79 262.25,332.56 210.62,718.32 -115.29,861.6z"/>
   <path class="fil3" d="M18800.66 6264.77c83.09,275.5 -61.27,289.85 -565.6,374.71 -504.25,84.85 -1177.38,208.02 -1260.49,-67.45 -83.1,-275.54 258.24,-567.63 762.49,-652.48 504.23,-84.86 980.4,69.71 1063.6,345.22z"/>
   <path class="fil3" d="M25055.28 1730.97c83.11,275.51 -61.25,289.85 -565.59,374.71 -504.25,84.85 -1177.38,208.02 -1260.49,-67.45 -83.11,-275.54 258.23,-567.62 762.48,-652.48 504.25,-84.85 980.41,69.72 1063.6,345.22z"/>
   <path class="fil3" d="M21796.35 14736.91c-325.99,143.32 -388.32,45.05 -650.65,-287.55 -262.25,-332.59 -624.99,-773.55 -299.08,-916.83 325.99,-143.28 802.78,10.15 1065.02,342.78 262.26,332.57 210.62,718.33 -115.29,861.6z"/>
   <path class="fil6" d="M23759.49 18895.73c-326.01,143.29 -388.33,45.01 -650.67,-287.56 -262.24,-332.58 -624.97,-773.58 -299.07,-916.79 326,-143.32 802.79,10.12 1065.03,342.75 262.25,332.57 210.62,718.36 -115.29,861.6z"/>
   <path class="fil3" d="M4265.12 1476.44c-326,143.31 -388.33,45.03 -650.66,-287.56 -262.25,-332.6 -624.98,-773.55 -299.06,-916.8 325.99,-143.28 802.77,10.11 1065.02,342.75 262.24,332.57 210.62,718.32 -115.3,861.61z"/>
   <path class="fil3" d="M20969.77 10685.89c-20.42,282 -164.61,266.45 -680.8,245.62 -516.12,-20.87 -1208.78,-39.16 -1188.27,-321.12 20.43,-282.03 455.38,-493.71 971.59,-472.84 516.01,20.85 917.89,266.31 897.48,548.34z"/>
   <path class="fil3" d="M20761.47 8121.3c-170.58,252.06 -294.17,194.51 -755.62,20.47 -461.26,-174.04 -1085.63,-398.75 -915.05,-650.78 170.58,-252.08 682.87,-315.32 1144.21,-141.25 461.27,174.04 697.04,519.45 526.46,771.56z"/>
   <path class="fil3" d="M15589.52 6989.31c-325.91,143.28 -388.33,45.01 -650.57,-287.59 -262.25,-332.57 -624.98,-773.55 -299.08,-916.8 325.92,-143.28 802.7,10.16 1064.94,342.79 262.25,332.53 210.7,718.32 -115.29,861.6z"/>
   <path class="fil6" d="M8330.84 12000.1c-325.9,143.28 -388.31,45.01 -650.57,-287.62 -262.24,-332.56 -624.98,-773.52 -299.06,-916.79 325.9,-143.29 802.69,10.18 1064.93,342.81 262.24,332.53 210.71,718.32 -115.3,861.6z"/>
   <path class="fil3" d="M3331.97 11437.64c-325.9,143.31 -388.33,45.04 -650.57,-287.56 -262.23,-332.6 -624.98,-773.55 -299.06,-916.83 325.9,-143.24 802.69,10.15 1064.93,342.79 262.24,332.56 210.71,718.32 -115.3,861.6z"/>
   <path class="fil3" d="M6002.66 2387.57c-326,143.28 -388.32,45.01 -650.66,-287.59 -262.24,-332.59 -624.99,-773.55 -299.07,-916.79 325.99,-143.29 802.78,10.15 1065.02,342.78 262.26,332.53 210.62,718.32 -115.29,861.6z"/>
   <path class="fil3" d="M26454.69 1552.41c-325.91,143.27 -388.33,45 -650.57,-287.56 -262.25,-332.6 -624.98,-773.59 -299.08,-916.8 325.92,-143.28 802.7,10.11 1064.95,342.78 262.24,332.53 210.7,718.29 -115.3,861.58z"/>
   <path class="fil8" d="M13143.62 4212.32c305.58,27.03 611.88,57.39 917.38,41.87 103.16,-17.24 203.74,-40.61 302.73,-68.77 122.15,-86.75 296.48,-197.41 317.79,-319.28 -4.02,-15.78 -9.36,-31.49 -16.85,-47.04 -89.35,-183.26 -187.52,-364.05 -277.14,-547.21 -37.36,-76.44 -117.43,-76.64 -200.8,-77.05 -258.94,-1.25 -517.9,13.86 -776.68,-19.83 -148.1,-19.27 -233.34,47.97 -278.02,151.73 -81.86,190.19 -171.47,378.51 -252.26,568.99 -72.58,171.08 27.91,295.75 263.85,316.59z"/>
   <g>
    <path class="fil9" d="M13564.77 2572.4c-0.64,-0.81 -1.17,-1.53 -1.61,-2.29 -0.18,-0.04 -0.27,-0.11 -0.36,-0.18l1.97 2.47z"/>
    <path class="fil9" d="M13133.73 2037.47c123.85,150.53 247.97,300.97 372.09,451.57 -0.44,-0.66 -0.88,-1.33 -1.42,-2l1.96 2.67c-0.18,-0.2 -0.36,-0.47 -0.54,-0.67 9.99,13.95 19.98,27.97 29.88,41.88l-1.87 -2.53c9.62,13.92 19.52,27.83 29.33,41.72 130.81,61.18 172.28,178.86 257.7,268.47 128.86,135.03 281.41,202.27 500.95,150.84 29.43,-25.37 65.1,-37.85 107.98,-34.99l1.43 -0.53c18.74,-6.92 37.37,-13.82 56.18,-20.71 30.85,-6.32 61.7,-12.65 92.64,-19.01l-4.28 0.1c16.23,-36.45 61.17,-45.6 95.23,-65.71 438.72,-258.19 814.92,-566.69 1133.97,-917.56 96.2,-105.94 182.08,-225.84 97.81,-363.69 -192.78,-314.86 -384.94,-629.84 -577.19,-944.86 -48.15,-78.9 -119.03,-137.23 -232.55,-152.44 -346.86,-46.64 -694,-92.02 -1041.12,-137.85 -238.45,-33.19 -327.17,3.62 -376.57,198.07 -52.7,207.29 -175.58,383.43 -327.7,552.61 -79.63,88.55 -160.68,176.7 -232.91,268.94 -185.2,236.43 -209.54,467.56 19,685.68z"/>
   </g>
   <path class="fil0" d="M15337.89 4596.64c-66.34,-252.53 -72.32,-250.06 -404.73,-254.76 -119.14,-1.66 -238.53,2.76 -357.93,5.12 -6.24,6.73 -16.05,11.93 -30.58,13.96 -295.6,41.18 -624.27,24.99 -915.05,-50.77 -187.71,-3.79 -375.32,-13.92 -562.93,-21.61 -119.31,-2.66 -238.71,-4.72 -357.92,-8.25 -111.72,-3.27 -217.57,12.51 -263.94,96.87 -119.76,217.95 -198.13,438.82 -7.93,660.06 85.95,137.73 242.62,193.82 432.11,209.03 253.68,20.34 507.27,42.09 761.68,56.43 434.33,24.47 868.41,60.92 1305.07,42.61 203.65,-8.52 371.02,-65.15 417.21,-232.03 47.72,-172.1 58.68,-345.61 -15.06,-516.66z"/>
   <path class="fil2" d="M26269.93 7692.62c-212.21,56.36 -209.53,59.59 -185.02,251.48 8.84,68.77 23.01,137.25 35.31,205.86 6.33,3.09 11.59,8.38 14.63,16.61 60.99,167.35 75.25,357.86 34.95,530.87 12.93,108.4 20.24,217.18 29.78,325.84 8.02,68.95 16.5,137.89 23.72,206.8 6.78,64.64 29.6,124.47 106.29,145.11 198.4,53.33 395.72,82.59 570.23,-42.85 111.45,-59.46 146.33,-153.73 143.12,-263.99 -4.28,-147.6 -7.32,-295.28 -16.86,-442.88 -16.32,-252 -22.19,-504.74 -75.62,-754.98 -24.87,-116.74 -88.18,-209.09 -236.02,-223.67 -152.66,-15.16 -303.26,-8.99 -444.51,45.8z"/>
   <path class="fil0" d="M14595.12 3246.98c433.17,424.68 823.73,870.76 1182.01,1332.48 85.52,110.23 208.56,150.15 360.95,107.9 262.88,-72.94 522.8,-155.77 639.52,-371.78 97.02,-120.37 72.41,-244.51 -7.22,-356.26 -261.62,-366.86 -521.28,-735.67 -869.48,-1062.75 -95.23,-89.41 -214.36,-160.21 -389.04,-122.61 -309.78,14.45 -586.46,101.15 -847.72,220.62 -144.02,65.84 -175.49,148.07 -69.02,252.4z"/>
   <path class="fil3" d="M17439.94 4067.64c-325.9,143.28 -388.32,45.01 -650.56,-287.59 -262.26,-332.56 -624.99,-773.56 -299.08,-916.8 325.92,-143.28 802.69,10.16 1064.93,342.78 262.25,332.53 210.72,718.33 -115.29,861.61z"/>
   <path class="fil0" d="M19717.49 12137.56c305.57,27 611.87,57.39 917.36,41.84 103.26,-17.21 203.75,-40.58 302.72,-68.74 122.25,-86.79 296.58,-197.45 317.8,-319.32 -4.01,-15.75 -9.27,-31.45 -16.77,-47 -89.34,-183.26 -187.61,-364.1 -277.21,-547.25 -37.37,-76.4 -117.36,-76.63 -200.72,-77.03 -259.04,-1.27 -517.89,13.88 -776.67,-19.85 -148.19,-19.24 -233.43,48.01 -278.02,151.74 -81.94,190.21 -171.47,378.54 -252.26,568.99 -72.58,171.07 27.82,295.75 263.77,316.62z"/>
   <path class="fil0" d="M21269.73 8251.45c305.58,27 611.86,57.4 917.36,41.85 103.26,-17.2 203.75,-40.58 302.73,-68.74 122.25,-86.79 296.57,-197.44 317.79,-319.28 -4.01,-15.78 -9.26,-31.49 -16.76,-47.04 -89.34,-183.26 -187.61,-364.09 -277.23,-547.25 -37.36,-76.4 -117.34,-76.64 -200.72,-77.03 -259.03,-1.27 -517.88,13.84 -776.65,-19.84 -148.2,-19.25 -233.45,48.01 -278.03,151.74 -81.94,190.21 -171.47,378.49 -252.25,568.98 -72.59,171.07 27.82,295.74 263.76,316.61z"/>
   <path class="fil0" d="M14422.3 10822.48c118.16,174.97 233.54,351.88 391.72,507.07 64.75,46.91 133.93,89.48 206.96,129.06 139.02,24.74 325.11,66.09 449.67,20.87 13.04,-9.42 25.24,-19.56 36.4,-30.73 130.44,-132.48 254.31,-268.54 384.57,-401.09 54.31,-55.31 16.85,-97.95 -21.93,-142.46 -120.56,-138.25 -256.45,-268.88 -346.33,-422.04 -51.45,-87.68 -154.8,-101.84 -273.39,-77.43 -217.39,44.64 -436.66,84.32 -653.79,129.69 -195.09,40.75 -265.18,151.97 -173.88,287.06z"/>
   <path class="fil8" d="M21911.82 12521.89c-66.33,-252.54 -72.3,-250.08 -404.72,-254.8 -119.14,-1.67 -238.63,2.79 -358.01,5.13 -6.16,6.72 -16.06,11.94 -30.6,13.97 -295.59,41.15 -624.17,24.97 -915.04,-50.76 -187.7,-3.79 -375.22,-13.95 -562.83,-21.6 -119.31,-2.67 -238.71,-4.73 -357.92,-8.27 -111.72,-3.25 -217.57,12.53 -263.94,96.89 -119.75,217.93 -198.13,438.82 -7.93,660.06 85.95,137.72 242.62,193.78 432.11,208.99 253.67,20.34 507.27,42.08 761.67,56.46 434.34,24.47 868.41,60.93 1305.06,42.61 203.67,-8.52 371.04,-65.14 417.23,-232.03 47.7,-172.11 58.68,-345.61 -15.08,-516.65z"/>
   <path class="fil7" d="M21169.06 11172.19c433.18,424.68 823.65,870.79 1181.93,1332.52 85.59,110.22 208.56,150.13 361.04,107.86 262.86,-72.91 522.7,-155.73 639.42,-371.78 97.02,-120.38 72.49,-244.51 -7.13,-356.27 -261.63,-366.85 -521.28,-735.66 -869.48,-1062.74 -95.33,-89.42 -214.36,-160.19 -389.04,-122.61 -309.78,14.49 -586.47,101.13 -847.73,220.62 -144.01,65.88 -175.48,148.1 -69.01,252.4z"/>
   <path class="fil0" d="M25678.48 10521.1c72.94,531.05 94.51,1063.72 77.66,1597.18 -4.01,127.41 73.03,209.36 232.56,232.66 275.26,40.18 554.8,70.71 805.37,-68.14 166.84,-64.92 232.63,-180.4 242.71,-306.73 33.08,-414.89 69.2,-830.71 0.62,-1245.37 -18.8,-113.38 -70.97,-220.18 -246.28,-256.13 -274.36,-108.3 -571.03,-142.12 -877.41,-141.95 -168.89,0.13 -253.15,58 -235.23,188.48z"/>
   <path class="fil3" d="M24013.89 11992.88c-326.01,143.28 -388.33,45 -650.67,-287.59 -262.24,-332.59 -624.97,-773.59 -299.07,-916.79 326,-143.29 802.79,10.14 1065.03,342.78 262.25,332.53 210.61,718.28 -115.29,861.6z"/>
   <path class="fil3" d="M26570.52 7459.07c-325.99,143.28 -388.32,45.03 -650.65,-287.56 -262.26,-332.6 -624.99,-773.59 -299.08,-916.8 325.99,-143.29 802.78,10.11 1065.02,342.75 262.25,332.56 210.62,718.32 -115.29,861.61z"/>
   <path class="fil0" d="M3419.72 6206.44c305.58,26.96 611.88,57.39 917.36,41.84 103.26,-17.21 203.76,-40.57 302.73,-68.74 122.25,-86.78 296.58,-197.47 317.79,-319.31 -4.01,-15.78 -9.26,-31.49 -16.76,-47.01 -89.34,-183.3 -187.61,-364.09 -277.23,-547.28 -37.36,-76.37 -117.34,-76.64 -200.7,-77.01 -259.04,-1.26 -517.9,13.86 -776.67,-19.83 -148.19,-19.28 -233.43,47.96 -278.03,151.69 -81.94,190.23 -171.46,378.55 -252.25,569 -72.59,171.11 27.82,295.74 263.76,316.65z"/>
   <g>
    <path class="fil9" d="M3708.89 4540.02c-0.62,-0.76 -1.24,-1.53 -1.78,-2.3 -0.09,-0.03 -0.17,-0.1 -0.35,-0.16l2.13 2.46z"/>
    <path class="fil9" d="M3237.99 3997.13c135.27,152.8 270.8,305.54 406.35,458.41 -0.54,-0.68 -1.07,-1.34 -1.62,-2l2.15 2.65c-0.18,-0.19 -0.36,-0.42 -0.53,-0.65 10.87,14.17 21.85,28.36 32.72,42.5l-2.14 -2.57c10.7,14.09 21.48,28.17 32.19,42.25 140.62,63.16 187.44,181.93 280.43,273.05 140.08,137.25 303.98,206.79 536.35,157.89 30.77,-25.1 68.39,-37.15 114.14,-33.73l1.42 -0.56c19.8,-6.65 39.42,-13.38 59.3,-20.04 32.73,-5.96 65.35,-11.92 98.17,-17.91l-4.54 0.04c16.41,-36.39 64.02,-45.01 99.87,-64.82 460.74,-253.73 853.87,-558.87 1185.22,-907.25 100.05,-105.16 188.59,-224.53 95.77,-364.11 -212.31,-318.76 -423.99,-637.67 -635.77,-956.59 -53.05,-79.9 -129.83,-139.35 -250.92,-156.1 -370.14,-51.29 -740.46,-101.36 -1110.77,-151.83 -254.48,-36.41 -348.02,-0.54 -396.18,194.14 -51.18,207.6 -177.98,382.97 -335.89,550.98 -82.67,87.92 -166.93,175.44 -241.65,267.18 -191.54,235.13 -212.22,467.03 35.93,689.07z"/>
   </g>
   <path class="fil0" d="M5614.07 6590.74c-66.34,-252.55 -72.32,-250.08 -404.74,-254.77 -119.13,-1.67 -238.62,2.76 -358.01,5.12 -6.15,6.69 -16.05,11.96 -30.58,13.95 -295.6,41.18 -624.18,24.97 -915.05,-50.76 -187.7,-3.8 -375.22,-13.96 -562.83,-21.61 -119.31,-2.67 -238.7,-4.72 -357.92,-8.25 -111.74,-3.27 -217.57,12.51 -263.94,96.87 -119.76,217.95 -198.13,438.82 -7.93,660.07 85.95,137.71 242.62,193.8 432.1,209.02 253.69,20.34 507.27,42.09 761.67,56.43 434.35,24.47 868.42,60.92 1305.07,42.61 203.66,-8.52 371.03,-65.15 417.22,-232.03 47.71,-172.1 58.68,-345.61 -15.06,-516.65z"/>
   <path class="fil0" d="M8666.12 7509.66c-60.1,-203.5 -66.07,-201.64 -395.72,-210.62 -118.07,-3.23 -236.75,-1.57 -355.17,-1.57 -6.33,5.3 -16.32,9.33 -30.76,10.73 -294.08,28.32 -619.81,10.18 -906.49,-55.13 -186.26,-6.03 -372.01,-17.11 -558,-26.23 -118.25,-4 -236.75,-7.56 -354.82,-12.29 -110.92,-4.36 -216.13,6.62 -264.01,73.5 -123.87,172.84 -206.7,348.72 -23.01,529.08 82.12,111.75 236.2,159.19 423.81,174.4 251.18,20.27 502.37,41.72 754.37,57.23 430.23,26.49 860.12,62.58 1293.65,54.76 202.33,-3.6 369.61,-46.38 419.28,-179.4 51.26,-137.29 66.06,-276.17 -3.13,-414.46z"/>
   <path class="fil0" d="M3948.14 7621.75c-22.39,-85.26 -24.45,-84.45 -136.61,-86.02 -40.22,-0.57 -80.61,0.93 -120.91,1.73 -2.06,2.26 -5.45,4.03 -10.35,4.7 -99.78,13.91 -210.7,8.45 -308.88,-17.12 -63.4,-1.29 -126.7,-4.72 -190.1,-7.32 -40.21,-0.86 -80.62,-1.59 -120.82,-2.79 -37.73,-1.08 -73.49,4.26 -89.09,32.72 -40.48,73.6 -66.96,148.17 -2.67,222.87 28.98,46.47 81.85,65.45 145.88,70.58 85.6,6.85 171.29,14.17 257.15,19.04 146.6,8.26 293.19,20.57 440.59,14.37 68.84,-2.86 125.27,-21.96 140.88,-78.32 16.14,-58.13 19.8,-116.68 -5.07,-174.44z"/>
   <path class="fil0" d="M4632.94 1963.03c-22.37,-85.25 -24.43,-84.45 -136.61,-86.02 -40.2,-0.57 -80.59,0.93 -120.91,1.73 -2.04,2.26 -5.43,4.03 -10.34,4.69 -99.77,13.91 -210.7,8.46 -308.88,-17.1 -63.4,-1.31 -126.71,-4.73 -190.11,-7.33 -40.21,-0.87 -80.6,-1.59 -120.82,-2.8 -37.71,-1.06 -73.47,4.26 -89.08,32.73 -40.48,73.6 -66.95,148.17 -2.67,222.87 28.97,46.47 81.85,65.45 145.88,70.58 85.6,6.85 171.3,14.18 257.16,19.04 146.59,8.26 293.19,20.57 440.58,14.37 68.84,-2.86 125.28,-21.96 140.89,-78.32 16.14,-58.13 19.79,-116.68 -5.09,-174.44z"/>
   <path class="fil0" d="M4557.87 10231.69c-22.39,-85.29 -24.43,-84.46 -136.61,-86.01 -40.22,-0.6 -80.61,0.93 -120.91,1.73 -2.06,2.26 -5.45,3.99 -10.34,4.69 -99.79,13.88 -210.71,8.42 -308.88,-17.15 -63.4,-1.25 -126.71,-4.72 -190.11,-7.28 -40.22,-0.9 -80.61,-1.61 -120.82,-2.8 -37.73,-1.1 -73.48,4.23 -89.09,32.72 -40.48,73.57 -66.96,148.14 -2.67,222.87 28.98,46.47 81.86,65.42 145.88,70.58 85.6,6.82 171.29,14.17 257.17,19 146.59,8.29 293.17,20.61 440.57,14.41 68.84,-2.86 125.29,-22 140.88,-78.33 16.14,-58.12 19.8,-116.71 -5.07,-174.43z"/>
   <path class="fil0" d="M625.9 6345.79c171.02,-24.63 169.32,-26.9 173.08,-152.27 1.33,-44.94 -1.44,-90.05 -2.86,-135.09 -4.55,-2.36 -8.03,-6.12 -9.45,-11.58 -27.29,-111.59 -15.79,-235.56 35.94,-345.15 2.94,-70.84 10.07,-141.58 15.59,-212.39 2.06,-44.94 3.66,-90.05 6.16,-134.99 2.41,-42.17 -8.11,-82.12 -65.09,-99.77 -147.31,-45.54 -296.76,-75.5 -446.74,-4.09 -93.36,32.18 -131.61,91.24 -142.22,162.68 -14.08,95.68 -29.25,191.35 -39.41,287.29 -17.3,163.86 -42.72,327.57 -31.03,492.36 5.43,76.89 43.41,140.08 156.39,157.79 116.37,18.31 233.81,22.71 349.64,-4.79z"/>
   <path class="fil2" d="M860.05 16872.79c231.57,-33.36 229.34,-36.46 234.43,-206.24 1.79,-60.88 -1.97,-121.93 -3.92,-182.95 -6.16,-3.2 -10.79,-8.26 -12.76,-15.69 -37,-151.13 -21.39,-319.01 48.61,-467.45 3.99,-95.91 13.64,-191.71 21.21,-287.62 2.68,-60.86 4.9,-121.94 8.29,-182.79 3.21,-57.13 -10.96,-111.26 -88.09,-135.09 -199.57,-61.72 -401.89,-102.27 -605.01,-5.57 -126.45,43.61 -178.25,123.54 -192.6,220.28 -19.18,129.6 -39.68,259.2 -53.41,389.1 -23.47,221.87 -57.88,443.64 -42.01,666.79 7.31,104.13 58.77,189.75 211.69,213.72 157.64,24.8 316.64,30.76 473.57,-6.49z"/>
   <path class="fil0" d="M4839.81 19981.48c166.48,-40.41 164.87,-44.14 168.9,-248.51 1.42,-73.24 -1.17,-146.7 -2.42,-220.14 -4.45,-3.87 -7.75,-9.96 -9.18,-18.85 -26.22,-181.82 -14.62,-383.92 35.94,-562.66 3.12,-115.41 10.25,-230.73 15.87,-346.14 2.04,-73.28 3.83,-146.81 6.42,-220.05 2.4,-68.74 -7.67,-133.89 -63.04,-162.45 -143.3,-74.07 -288.55,-122.64 -434.7,-6.03 -91.04,52.66 -128.41,148.94 -138.93,265.38 -14,156 -29.06,312 -39.24,468.33 -17.28,267.08 -42.52,534.03 -31.56,802.55 5,125.33 41.83,228.33 151.67,257 113.16,29.58 227.47,36.61 340.27,-8.43z"/>
   <path class="fil0" d="M6544.54 287.65c-44.68,-169.87 -48.69,-168.21 -272.33,-171.37 -80.07,-1.13 -160.41,1.87 -240.75,3.46 -4.19,4.49 -10.79,8.03 -20.6,9.39 -198.84,27.67 -419.89,16.78 -615.53,-34.16 -126.25,-2.56 -252.43,-9.38 -378.61,-14.54 -80.25,-1.8 -160.59,-3.17 -240.75,-5.56 -75.16,-2.2 -146.42,8.42 -177.53,65.18 -80.61,146.61 -133.31,295.18 -5.36,444.02 57.79,92.64 163.18,130.37 290.6,140.62 170.67,13.64 341.25,28.29 512.45,37.95 292.12,16.44 584.15,40.95 877.87,28.63 136.97,-5.73 249.58,-43.82 280.62,-156.07 32.09,-115.78 39.49,-232.49 -10.08,-347.55z"/>
   <path class="fil1" d="M4871.3 5241.07c433.17,424.67 823.64,870.76 1181.92,1332.48 85.6,110.26 208.56,150.15 361.05,107.9 262.86,-72.93 522.7,-155.77 639.42,-371.82 97.01,-120.34 72.5,-244.47 -7.13,-356.23 -261.63,-366.88 -521.28,-735.67 -869.48,-1062.74 -95.33,-89.45 -214.37,-160.22 -389.04,-122.6 -309.78,14.44 -586.47,101.13 -847.73,220.61 -144.01,65.87 -175.48,148.07 -69.01,252.4z"/>
   <path class="fil3" d="M7716.12 6061.73c-326,143.28 -388.33,45 -650.67,-287.59 -262.24,-332.57 -624.98,-773.56 -299.06,-916.8 325.99,-143.28 802.78,10.15 1065.02,342.78 262.25,332.53 210.62,718.33 -115.29,861.61z"/>
   <path class="fil3" d="M14748.85 12406.04c369.23,61.12 221.84,236.39 162.27,436.96 -59.46,200.53 -8.73,350.38 -377.98,289.22 -369.24,-61.16 -264.28,-220.01 -204.73,-420.55 59.48,-200.53 51.09,-366.81 420.44,-305.63z"/>
   <path class="fil3" d="M16483.7 6031.46c369.25,61.12 221.86,236.4 162.29,436.97 -59.48,200.54 -8.74,350.41 -377.99,289.22 -369.25,-61.13 -264.29,-220.01 -204.72,-420.59 59.46,-200.5 51.09,-366.78 420.42,-305.6z"/>
   <path class="fil3" d="M19351.9 475.14c60.54,333.37 -259.66,448.35 -670.11,489.96 -410.61,41.65 -755.97,-6.06 -816.51,-339.35 -60.55,-333.33 292.39,-318.48 702.91,-360.03 410.44,-41.65 723.15,-123.94 783.71,209.42z"/>
   <path class="fil3" d="M19894.22 3461.5c307.44,164.42 79.81,282.46 -80.34,449.51 -160.15,167.04 -192.17,319.72 -499.71,155.29 -307.45,-164.38 -127.51,-279.8 32.73,-446.81 160.06,-167.01 239.69,-322.4 547.32,-157.99z"/>
   <path class="fil3" d="M18903.37 13394.61c369.25,61.12 221.86,236.39 162.29,436.97 -59.47,200.53 -8.74,350.36 -377.98,289.22 -369.24,-61.16 -264.3,-220.02 -204.73,-420.55 59.48,-200.55 51.09,-366.83 420.42,-305.64z"/>
   <path class="fil3" d="M798.61 12034.52c599.84,99.35 360.51,384.04 263.67,709.88 -96.66,325.8 -14.26,569.21 -614.09,469.88 -599.85,-99.34 -429.36,-357.43 -332.61,-683.24 96.75,-325.74 83.11,-595.85 683.03,-496.52z"/>
   <path class="fil3" d="M21098.97 14827.79c369.24,61.19 221.85,236.44 162.28,437 -59.47,200.57 -8.74,350.38 -377.98,289.22 -369.24,-61.15 -264.3,-220 -204.73,-420.58 59.48,-200.5 51.09,-366.75 420.43,-305.64z"/>
   <path class="fil3" d="M17746.69 18653.25c262.24,-13.68 231.56,349.02 267.22,727.78 35.76,378.7 124.14,629.88 -138.03,643.59 -262.23,13.76 -252.96,-305.53 -288.63,-684.27 -35.67,-378.6 -102.73,-673.32 159.44,-687.1z"/>
   <path class="fil2" d="M25272.41 7985.44c-670.28,1.6 -1340.65,0.86 -2010.84,6.66 -127.15,1.13 -168.26,-35.42 -183.24,-124.24 -107.36,-635.97 -191.09,-1273.33 -167.64,-1915.23 13.65,-372.57 217.13,-702.54 449.95,-1023.25 137.04,-188.76 268.84,-379.71 405.71,-568.59 110.57,-152.66 203.75,-170.84 396.09,-74.77 213.47,106.66 336.79,272.84 474.55,427.04 254.76,285.09 562.3,547.08 701.23,884.31 156.3,798.82 47.79,1593.51 -65.81,2388.07z"/>
   <path class="fil2" d="M26879.31 12540.46c2.14,500.47 1.17,1001.02 8.92,1501.44 1.51,94.94 -47.44,125.64 -166.39,136.82 -851.73,80.19 -1705.35,142.68 -2565.01,125.17 -499,-10.19 -940.92,-162.13 -1370.44,-335.96 -252.79,-102.34 -508.53,-200.71 -761.5,-302.91 -204.46,-82.59 -228.8,-152.17 -100.14,-295.78 142.86,-159.36 365.43,-251.44 571.93,-354.3 381.83,-190.21 732.7,-419.85 1184.34,-523.61 1069.84,-116.68 2134.15,-35.69 3198.29,49.13z"/>
   <path class="fil0" d="M20663.02 3686.71c305.59,26.99 611.88,57.38 917.38,41.84 103.24,-17.21 203.75,-40.58 302.72,-68.75 122.24,-86.75 296.56,-197.44 317.79,-319.28 -4.01,-15.78 -9.27,-31.49 -16.76,-47.04 -89.35,-183.26 -187.61,-364.09 -277.23,-547.24 -37.36,-76.4 -117.34,-76.64 -200.72,-77.03 -259.03,-1.24 -517.89,13.85 -776.65,-19.85 -148.2,-19.24 -233.45,48.01 -278.03,151.74 -81.95,190.21 -171.47,378.5 -252.25,568.99 -72.59,171.07 27.82,295.74 263.75,316.62z"/>
   <path class="fil0" d="M24762.64 151c-306.84,-17.7 -614.47,-38.78 -918.89,-14.01 -102.19,20.37 -201.34,46.74 -298.71,77.89 -117.43,90.42 -285.52,206.27 -300.14,328.68 4.81,15.64 10.96,31.19 19.35,46.47 99.25,180.43 207.14,358.09 306.64,538.4 41.56,75.19 121.55,73 204.83,70.86 258.85,-6.59 516.73,-29.56 777.1,-3.76 149.08,14.79 230.59,-54.99 269.55,-159.98 71.43,-192.55 150.71,-383.43 221.06,-576.19 63.21,-173.14 -43.88,-294.64 -280.79,-308.36z"/>
   <path class="fil8" d="M25378.08 5099.69c-189.22,-268.72 -375.77,-538.57 -569.16,-805.68 -58.5,-80.76 -64.83,-120.94 77.47,-155.26 259.58,-62.52 502.12,-158.06 746.07,-250.27 220.8,-83.5 368.99,-42.75 401.54,134.75 80.96,442.49 362.73,815.46 661.53,1188.08 208.75,260.39 168.63,373.48 -153.81,558.43 -113.96,65.48 -238.88,120.97 -347.04,191.12 -115.3,74.7 -177,52.43 -240.04,-39.38 -188.78,-275.24 -383.88,-548.02 -576.56,-821.79z"/>
   <g>
    <path class="fil2" d="M3893.02 12026.37c23.28,210.66 177.27,347.18 440.05,403.97 412.32,89.09 829.27,166.79 1255.4,208.72 261.27,25.77 528.86,47.81 779.42,-34.55 349.45,-114.82 708.63,-133.76 1082.42,-101.13 428.54,37.35 502.74,-27.14 427.83,-343.55 -29.52,-33.86 -59.29,-67.65 -88.99,-101.47 -14.89,-9.95 -29.87,-19.91 -44.85,-29.83 -28.53,-1.2 -45.3,-12.25 -50.74,-32.92 -84.35,-25 -184.84,-36.35 -189.93,-128.5l-0.62 -0.5c-15.26,5.39 -30.5,10.78 -45.75,16.21 -23.63,-12.01 -47.17,-23.96 -70.89,-35.95 -280.33,-124.01 -492.47,-293.81 -618.74,-521.39 -102.89,-173.26 -5.96,-343.04 15.17,-514.19l-4.74 -0.23c16.87,-12.58 33.81,-25.23 50.75,-37.88 71.51,-204.07 -13.29,-313.59 -279.19,-329.64 -625.79,-37.62 -1247.01,44.75 -1871.2,47.27 -256.63,1.1 -432.82,83.53 -562.47,234.76 -147.31,171.78 -268.66,353.47 -299.88,561.37 -74.45,252.24 -74.01,500.18 76.95,739.43z"/>
    <path class="fil2" d="M7740.82 12026.23c1.15,0.77 2.32,1.54 3.48,2.3 0.08,0 0.08,0.04 0.17,0l-3.65 -2.3z"/>
    <path class="fil2" d="M7692.94 11994.28c0.18,0.5 0.44,0.84 0.62,1.33 0.89,0.27 1.88,0.5 2.86,0.8l-3.48 -2.13z"/>
    <path class="fil2" d="M7788.98 12058.1c0.09,0.1 0.17,0.19 0.17,0.26 1.16,0.73 2.22,1.47 3.3,2.2l-3.47 -2.46z"/>
   </g>
   <g>
    <path class="fil0" d="M20936.06 2065.09c-0.62,-0.69 -1.24,-1.36 -1.79,-2.03 -0.18,-0.06 -0.26,-0.09 -0.35,-0.16l2.14 2.19z"/>
    <path class="fil2" d="M20442.7 1584.89c141.59,135.23 283.37,270.41 425.24,405.74 -0.53,-0.6 -1.08,-1.2 -1.61,-1.8l2.23 2.36c-0.18,-0.16 -0.35,-0.4 -0.62,-0.56 11.5,12.45 23.1,24.97 34.59,37.41l-2.23 -2.26c11.24,12.45 22.65,24.87 33.97,37.28 142.41,58.23 194.65,161.73 291.22,242.73 145.62,122 311.38,186.38 538.95,150.86 29.24,-20.74 65.89,-30.06 111.28,-25.84l1.42 -0.42c19.26,-5.2 38.35,-10.43 57.69,-15.59 32.01,-4.22 64.12,-8.45 96.3,-12.67l-4.54 -0.11c14.44,-30.83 61.17,-36.91 95.58,-52.92 443.44,-205.41 817.24,-456.85 1127.8,-747.27 93.72,-87.64 175.4,-187.85 76.51,-310.52 -226.21,-280.13 -451.81,-560.4 -677.5,-840.66 -56.44,-70.25 -135.45,-123.54 -256.18,-141.32 -368.97,-54.49 -738.13,-107.89 -1107.29,-161.72 -253.68,-38.45 -344.46,-10.22 -382.36,155.93 -40.3,177.13 -156.93,324.4 -304.86,464.55 -77.4,73.31 -156.4,146.21 -225.77,223.04 -177.81,196.92 -186.63,395.82 70.18,593.76z"/>
   </g>
   <g>
    <path class="fil0" d="M17665.18 3400.85c-0.62,-0.8 -1.16,-1.54 -1.69,-2.33 -0.18,-0.04 -0.27,-0.11 -0.36,-0.14l2.05 2.47z"/>
    <path class="fil2" d="M17194.38 2857.95c135.26,152.8 270.72,305.54 406.24,458.4 -0.53,-0.66 -0.97,-1.33 -1.51,-2.02l2.14 2.69c-0.18,-0.19 -0.36,-0.46 -0.63,-0.67 10.97,14.15 21.95,28.37 32.82,42.48l-2.14 -2.56c10.62,14.08 21.4,28.2 32.19,42.25 140.62,63.15 187.34,181.92 280.35,273.03 140.17,137.3 304.05,206.8 536.34,157.94 30.85,-25.11 68.48,-37.16 114.14,-33.73l1.52 -0.56c19.71,-6.7 39.4,-13.38 59.29,-20.04 32.64,-6 65.36,-11.92 98.18,-17.94l-4.56 0.03c16.41,-36.39 64.03,-44.98 99.79,-64.79 460.82,-253.76 853.96,-558.86 1185.31,-907.28 99.96,-105.16 188.6,-224.51 95.77,-364.12 -212.32,-318.72 -424,-637.62 -635.86,-956.54 -52.97,-79.9 -129.74,-139.39 -250.83,-156.13 -370.14,-51.3 -740.54,-101.34 -1110.86,-151.84 -254.49,-36.39 -347.94,-0.53 -396.08,194.18 -51.28,207.56 -177.99,382.93 -335.91,550.94 -82.66,87.95 -166.92,175.48 -241.64,267.19 -191.62,235.16 -212.23,467.06 35.94,689.09z"/>
   </g>
   <path class="fil1" d="M22857.37 4071.04c-66.34,-252.54 -72.31,-250.08 -404.74,-254.77 -119.12,-1.7 -238.61,2.76 -358.01,5.13 -6.15,6.68 -16.05,11.91 -30.58,13.94 -295.59,41.15 -624.17,24.97 -915.04,-50.8 -187.7,-3.79 -375.23,-13.91 -562.84,-21.56 -119.3,-2.67 -238.7,-4.74 -357.91,-8.27 -111.74,-3.25 -217.57,12.53 -263.94,96.88 -119.76,217.91 -198.14,438.83 -7.95,660.07 85.96,137.69 242.64,193.81 432.11,208.99 253.69,20.38 507.29,42.08 761.68,56.46 434.34,24.44 868.41,60.92 1305.07,42.61 203.66,-8.52 371.03,-65.18 417.22,-232.03 47.71,-172.11 58.67,-345.61 -15.07,-516.65z"/>
   <path class="fil0" d="M22114.59 2721.37c433.19,424.68 823.65,870.75 1181.93,1332.49 85.61,110.22 208.57,150.13 361.04,107.86 262.88,-72.91 522.72,-155.73 639.43,-371.79 97.03,-120.34 72.5,-244.48 -7.13,-356.26 -261.62,-366.85 -521.27,-735.67 -869.47,-1062.75 -95.33,-89.41 -214.37,-160.18 -389.05,-122.56 -309.77,14.45 -586.46,101.13 -847.72,220.57 -144.01,65.89 -175.49,148.08 -69.03,252.44z"/>
   <path class="fil5" d="M24959.42 3541.99c-325.99,143.29 -388.32,45.01 -650.65,-287.56 -262.24,-332.58 -624.99,-773.58 -299.07,-916.79 325.99,-143.28 802.77,10.12 1065.02,342.75 262.24,332.57 210.62,718.32 -115.3,861.6z"/>
   <path class="fil3" d="M25187.7 11484.64c-326,143.28 -388.34,45.01 -650.67,-287.55 -262.23,-332.6 -624.98,-773.59 -299.06,-916.8 325.99,-143.27 802.78,10.12 1065.02,342.79 262.24,332.53 210.62,718.29 -115.29,861.56z"/>
   <path class="fil3" d="M25689.99 12129.2c-19.8,282.03 -122.26,268.28 -489.72,253.94 -367.47,-14.39 -860.74,-23.97 -840.95,-306.01 19.8,-282.03 333.67,-498.97 701.14,-484.59 367.36,14.35 649.32,254.63 629.53,536.66z"/>
   <path class="fil3" d="M19920.69 461.16c369.26,61.13 221.86,236.4 162.29,436.96 -59.47,200.54 -8.74,350.42 -377.98,289.26 -369.24,-61.15 -264.3,-220.05 -204.73,-420.62 59.48,-200.5 51.09,-366.75 420.42,-305.6z"/>
   <path class="fil3" d="M15088.75 7406.39c369.25,61.16 175.58,392.33 67.24,757.18 -108.35,364.82 -90.43,625.11 -459.67,563.97 -369.24,-61.19 -223.37,-357.67 -115.02,-722.53 108.24,-364.78 138.12,-659.8 507.45,-598.62z"/>
   <path class="fil3" d="M3360.69 14055.98c48.87,280.06 -434.17,256.92 -930.47,305.19 -496.31,48.28 -817.94,149.52 -866.72,-130.53 -48.78,-280.03 374.24,-278.69 870.55,-326.93 496.23,-48.27 877.87,-127.8 926.64,152.27z"/>
   <path class="fil3" d="M6424.96 8144.5c369.24,61.15 175.57,392.32 67.24,757.17 -108.34,364.83 -90.42,625.12 -459.68,563.96 -369.24,-61.18 -223.35,-357.66 -115.02,-722.52 108.26,-364.79 138.12,-659.8 507.46,-598.61z"/>
   <path class="fil3" d="M8719.36 13125.16c249.22,-104.5 363.62,154.9 548.83,401.17 185.11,246.22 370.84,386.07 121.62,490.53 -249.23,104.43 -367.2,-117.41 -552.31,-363.65 -185.19,-246.19 -367.37,-423.59 -118.14,-528.05z"/>
   <path class="fil3" d="M12555.29 10987.49c211.68,143.42 -126.53,343.42 -428.01,591.46 -301.39,247.94 -451.99,449.92 -663.68,306.43 -211.5,-143.43 72.49,-329.76 373.98,-577.73 301.39,-247.98 506.11,-463.63 717.71,-320.16z"/>
   <path class="fil3" d="M26635.34 15400.71c377.55,17.15 255.83,366.89 225.43,739.94 -30.32,372.98 42.08,627.94 -335.46,610.79 -377.53,-17.17 -295.77,-327.07 -265.36,-700.11 30.31,-372.95 -2.15,-667.79 375.39,-650.62z"/>
   <path class="fil3" d="M26042.56 2882.92c369.25,61.19 221.84,236.43 162.27,437 -59.46,200.57 -8.73,350.37 -377.97,289.25 -369.25,-61.15 -264.29,-220.04 -204.74,-420.58 59.48,-200.53 51.1,-366.78 420.44,-305.67z"/>
   <path class="fil3" d="M26681.71 9496.13c369.24,61.18 221.85,236.42 162.28,436.99 -59.46,200.58 -8.73,350.36 -377.97,289.24 -369.25,-61.17 -264.3,-220.03 -204.74,-420.57 59.48,-200.54 51.1,-366.78 420.43,-305.66z"/>
   <path class="fil3" d="M24506.1 16152.37c421.58,191.91 57.06,464.19 -217.84,800.91 -274.82,336.7 -355.97,610.17 -777.56,418.25 -421.5,-191.91 -128.4,-445.35 146.42,-782.01 274.82,-336.66 427.39,-629.07 848.98,-437.15z"/>
   <path class="fil13" d="M5542.82 16438.15c-511.92,-118.21 -890.26,-839.52 -598.77,-1451.56 472.87,-992.9 1017.94,-913.93 1529.77,-795.69 511.93,118.25 718.43,717.1 461.36,1337.68 -257.15,620.59 -880.45,1027.83 -1392.36,909.57z"/>
   <path class="fil6" d="M22383.43 17679.46c-274,-63.28 -476.51,-449.37 -320.46,-776.98 253.06,-531.47 544.81,-489.22 818.84,-425.91 274,63.28 384.57,383.86 246.9,716.03 -137.59,332.2 -471.26,550.18 -745.28,486.86z"/>
   <path class="fil3" d="M17089.97 17095.23c42.07,-107.33 310.47,-189.35 540.79,-131.1 373.62,94.45 346.43,208.53 304.25,315.88 -42.01,107.27 -265.37,152.91 -498.72,101.91 -233.36,-51 -388.42,-179.36 -346.32,-286.69z"/>
   <path class="fil3" d="M24896.83 15561.24c42.08,-107.33 310.48,-189.36 540.8,-131.1 373.62,94.45 346.43,208.5 304.25,315.88 -42,107.27 -265.37,152.91 -498.72,101.91 -233.36,-51 -388.42,-179.36 -346.33,-286.69z"/>
   <path class="fil3" d="M11881.36 6411.9c41.99,-107.32 310.39,-189.35 540.71,-131.09 373.71,94.47 346.42,208.52 304.33,315.89 -42.08,107.28 -265.36,152.89 -498.72,101.89 -233.35,-51 -388.5,-179.36 -346.32,-286.69z"/>
   <path class="fil3" d="M10100.92 7281.16c42.01,-107.35 310.4,-189.35 540.73,-131.12 373.7,94.44 346.42,208.52 304.33,315.88 -42.08,107.26 -265.36,152.93 -498.72,101.93 -233.36,-51.03 -388.51,-179.36 -346.34,-286.69z"/>
   <path class="fil3" d="M14614.29 11846.67c60.63,-154.8 427.73,-277.37 738.49,-198.08 504.07,128.64 463.41,292.79 402.6,447.59 -60.54,154.69 -365.32,224.27 -680.36,155.39 -315.12,-68.87 -521.45,-250.17 -460.73,-404.9z"/>
   <path class="fil3" d="M17053.85 1408.99c173.33,96.2 110.74,485.19 -192.25,770.96 -491.41,463.62 -689.99,384.73 -863.33,288.39 -173.17,-96.15 -77.31,-411.4 214.09,-703.88 291.4,-292.56 668.23,-451.74 841.49,-355.47z"/>
   <path class="fil3" d="M24741.23 14737.95c85.43,-217.85 601.98,-390.39 1039.35,-278.77 709.51,181.03 652.18,412.06 566.66,629.94 -85.24,217.69 -514.15,315.62 -957.57,218.68 -443.52,-96.94 -733.95,-352.07 -648.44,-569.85z"/>
   <path class="fil3" d="M19802.81 8870.41c251.19,3.9 545.89,316.06 519.76,645.23 -42.43,534.06 -301.74,552.87 -553.02,548.88 -251,-3.8 -447.26,-274.38 -438.08,-604.08 9.1,-329.7 220.16,-593.92 471.34,-590.03z"/>
   <path class="fil3" d="M10392.51 3108.17c60.73,-154.77 659.49,-226.71 1218.58,-93.09 907.02,216.72 883.48,384.64 822.67,539.4 -60.55,154.69 -566.85,180.19 -1130.39,56.99 -563.73,-123.2 -971.59,-348.58 -910.86,-503.3z"/>
   <path class="fil3" d="M11574.71 5817.31c0.35,-161.28 687.67,-355.06 1423.74,-343.24 1194.06,19.21 1244.63,185.35 1244.19,346.67 -0.28,161.19 -597.97,291.12 -1334.59,290.19 -736.72,-0.9 -1333.79,-132.39 -1333.34,-293.62z"/>
   <path class="fil3" d="M6868.04 6758.18c60.63,-154.8 427.74,-277.37 738.49,-198.07 504.07,128.63 463.42,292.74 402.61,447.54 -60.56,154.7 -365.34,224.31 -680.37,155.4 -315.12,-68.85 -521.46,-250.13 -460.73,-404.87z"/>
   <path class="fil3" d="M3408.39 2244.66c180.39,88.66 229.97,386.59 37.37,585.27 -312.27,322.24 -510.58,245.07 -691.06,156.4 -180.3,-88.55 -180.21,-326.51 0.27,-531.28 180.48,-204.83 473.03,-299.04 653.42,-210.39z"/>
   <path class="fil3" d="M12663.45 9096.18c27.56,-70.31 194.31,-125.97 335.37,-89.94 228.98,58.39 210.53,132.96 182.88,203.23 -27.47,70.28 -165.85,101.86 -308.97,70.57 -143.12,-31.25 -236.83,-113.61 -209.28,-183.86z"/>
   <path class="fil3" d="M8099.18 12576.08c27.55,-70.31 194.3,-125.97 335.36,-89.95 229,58.39 210.53,132.96 182.89,203.24 -27.46,70.28 -165.84,101.86 -308.96,70.58 -143.12,-31.26 -236.84,-113.59 -209.29,-183.87z"/>
   <path class="fil3" d="M8966.61 19939.23c27.56,-70.3 194.31,-125.96 335.37,-89.95 228.99,58.39 210.53,132.96 182.88,203.24 -27.46,70.28 -165.85,101.87 -308.96,70.58 -143.12,-31.26 -236.84,-113.59 -209.29,-183.87z"/>
   <path class="fil3" d="M20562.81 18337.07c27.55,-70.31 194.28,-125.97 335.36,-89.95 228.97,58.39 210.51,132.96 182.87,203.23 -27.46,70.28 -165.84,101.87 -308.96,70.58 -143.12,-31.26 -236.83,-113.59 -209.27,-183.86z"/>
   <path class="fil3" d="M22754.2 8280.92c27.56,-70.31 194.3,-125.97 335.37,-89.96 228.98,58.4 210.53,132.97 182.88,203.25 -27.46,70.27 -165.85,101.86 -308.97,70.57 -143.12,-31.26 -236.83,-113.61 -209.28,-183.86z"/>
   <path class="fil3" d="M5860.97 2755.69c27.56,-70.31 194.31,-125.96 335.37,-89.95 228.98,58.39 210.53,132.96 182.88,203.24 -27.47,70.27 -165.85,101.87 -308.97,70.57 -143.11,-31.26 -236.83,-113.58 -209.28,-183.86z"/>
   <path class="fil3" d="M12416.27 2670.41c39.15,-99.88 275.98,-178.97 476.52,-127.81 325.29,82.99 299.07,188.92 259.83,288.79 -39.05,99.84 -235.66,144.74 -439.06,100.3 -203.29,-44.44 -336.43,-161.42 -297.29,-261.28z"/>
   <path class="fil3" d="M15860.41 11417.07c27.55,-70.31 194.3,-125.97 335.36,-89.95 228.99,58.39 210.53,132.96 182.89,203.24 -27.46,70.27 -165.85,101.85 -308.96,70.57 -143.12,-31.26 -236.84,-113.59 -209.29,-183.86z"/>
   <path class="fil3" d="M19470.84 13662.7c51,-130.17 359.72,-233.24 620.98,-166.59 423.9,108.15 389.75,246.21 338.66,376.34 -51.02,130.09 -307.19,188.66 -572.2,130.7 -265,-57.89 -438.44,-210.36 -387.44,-340.45z"/>
   <path class="fil3" d="M22614.66 4859.53c96.03,5 180.21,350.11 139.63,712.97 -65.8,588.73 -167.09,608.84 -263.13,603.74 -96.04,-4.95 240.21,-415.09 -112.09,-667.42 -775.4,-555.34 139.55,-654.28 235.59,-649.29z"/>
   <path class="fil3" d="M26769.19 3393.73c96.03,4.98 180.21,350.1 139.64,712.96 -65.81,588.73 -167.11,608.84 -263.14,603.74 -96.03,-4.96 240.22,-415.09 -112.08,-667.42 -775.42,-555.34 139.55,-654.28 235.58,-649.28z"/>
   <path class="fil3" d="M19411.63 4627.51c-11.5,100.26 -661.09,180.42 -1340.9,129.69 -1103.2,-82.32 -1138.6,-188.72 -1126.83,-289.08 11.5,-100.34 773.36,260.79 1254.87,-101.98 1059.77,-798.44 1224.46,161 1212.86,261.37z"/>
   <path class="fil3" d="M1880.32 10526.44c133.03,-11.99 339.55,259.66 379.94,567.02 65.54,498.48 27.74,700.01 -105.3,711.84 -132.96,12.11 -730.48,306.8 -425.97,-701.75 90.96,-301.41 18.29,-565.16 151.33,-577.11z"/>
   <path class="fil3" d="M2453.76 3062.65c-133.31,9.86 -256.09,308.44 -206.34,615.03 80.78,497.25 176.2,687.87 309.51,677.88 133.31,-9.69 802.16,181.26 212.12,-753.98 -176.27,-279.56 -181.98,-548.77 -315.29,-538.93z"/>
   <path class="fil3" d="M2962.2 9292c-133.31,-10.13 -254.84,-309.03 -203.85,-615.53 82.85,-497.01 178.97,-687.43 312.27,-677.15 133.22,10.02 802.87,-179.46 209.11,754.48 -177.45,279.13 -184.23,548.34 -317.53,538.2z"/>
   <path class="fil3" d="M10474.01 6149.78c-96.3,-69.58 56,-360.53 350.17,-577.64 477.04,-352.14 710.31,-457.27 806.52,-387.56 96.4,69.43 779.43,230.1 -461.17,689.22 -370.77,137.23 -599.31,345.56 -695.52,275.98z"/>
   <path class="fil3" d="M22181.12 14282.72c27.55,-70.28 194.21,-125.94 335.36,-89.93 228.9,58.4 210.44,132.97 182.88,203.25 -27.55,70.24 -165.94,101.86 -309.05,70.56 -143.12,-31.26 -236.74,-113.57 -209.19,-183.88z"/>
   <path class="fil3" d="M26360.88 14450.92c27.55,-70.31 194.3,-125.93 335.36,-89.94 228.99,58.42 210.53,132.96 182.89,203.23 -27.46,70.28 -165.84,101.9 -308.96,70.61 -143.12,-31.29 -236.84,-113.62 -209.29,-183.9z"/>
   <path class="fil3" d="M20298.68 14246.26c27.56,-70.31 194.31,-125.97 335.37,-89.98 228.98,58.42 210.53,132.99 182.88,203.27 -27.46,70.24 -165.85,101.86 -308.97,70.57 -143.12,-31.29 -236.83,-113.58 -209.28,-183.86z"/>
   <path class="fil3" d="M22124.85 6780.85c27.55,-70.3 194.3,-125.97 335.36,-89.98 228.99,58.42 210.53,132.95 182.89,203.27 -27.46,70.24 -165.85,101.87 -308.97,70.57 -143.11,-31.29 -236.83,-113.58 -209.28,-183.86z"/>
   <path class="fil3" d="M14125.56 17928c27.55,-70.31 194.3,-125.97 335.36,-89.94 228.98,58.38 210.53,132.95 182.89,203.23 -27.47,70.28 -165.86,101.87 -308.98,70.58 -143.12,-31.26 -236.83,-113.59 -209.27,-183.87z"/>
   <path class="fil3" d="M21419.89 15629.41c130.53,-26.82 381.1,193.12 471.88,465.19 147.31,441.56 19.8,488 -110.76,514.73 -130.45,26.86 -317.16,-170.81 -416.85,-441.42 -99.78,-270.58 -74.72,-511.66 55.73,-538.5z"/>
   <path class="fil3" d="M8308.65 5316.47c60.63,-154.8 427.74,-277.37 738.49,-198.08 504.06,128.64 463.41,292.75 402.6,447.55 -60.55,154.7 -365.33,224.31 -680.36,155.4 -315.13,-68.85 -521.46,-250.14 -460.73,-404.87z"/>
   <path class="fil3" d="M15611.73 487.13c106.1,-270.64 748.12,-485.09 1291.6,-346.41 881.7,224.97 810.45,512.1 704.16,782.84 -105.92,270.52 -638.89,392.22 -1189.96,271.77 -551.14,-120.5 -912,-437.56 -805.8,-708.2z"/>
   <path class="fil3" d="M18534.22 11288.94c1243.28,-301.77 435.23,340.25 378.61,667.42 -91.84,530.8 -316.19,537.73 -531.17,522.28 -214.91,-15.24 -354.99,-294.14 -312.9,-622.61 41.99,-328.54 260.02,-517.26 465.46,-567.09z"/>
   <path class="fil11" d="M3395.65 4574.48c159.96,108.35 88.45,456.9 -205.99,682.96 -477.5,366.73 -661.89,271.28 -821.78,162.86 -159.97,-108.22 -59.46,-385.5 224.26,-619.05 283.83,-233.57 643.54,-335.17 803.51,-226.77z"/>
   <path class="fil3" d="M8523.1 10954.8c83.55,-213.18 589.22,-382.03 1017.23,-272.81 694.36,177.17 638.36,403.31 554.63,616.5 -83.47,213.08 -503.28,308.93 -937.25,214.05 -434.07,-94.87 -718.26,-344.58 -634.61,-557.74z"/>
   <path class="fil3" d="M5153.42 9786.59c68.3,-174.41 481.87,-312.5 831.95,-223.15 567.9,144.88 522.08,329.83 453.59,504.2 -68.3,174.27 -411.6,252.67 -766.49,175.06 -355.07,-77.58 -587.52,-281.81 -519.05,-456.11z"/>
   <path class="fil3" d="M6251.09 4139.54c88.09,-224.63 618.82,-403.07 1067.61,-288.49 727.97,185.93 668.76,424.19 580.49,648.89 -87.93,224.51 -528.43,325.98 -983.44,226.47 -455.13,-99.43 -752.76,-362.23 -664.66,-586.87z"/>
   <path class="fil3" d="M2422.99 17563.61c108.61,-276.9 765.25,-496.21 1321.13,-354.33 901.75,230.1 829,523.74 720.21,800.65 -108.34,276.7 -653.51,401.21 -1217.15,278.01 -563.63,-123.25 -932.8,-447.55 -824.19,-724.33z"/>
   <path class="fil5" d="M4140.91 19253.17c0,470.69 45.66,852.22 -1940.29,852.22 -2079.24,0 -1940.31,-381.53 -1940.31,-852.22 0,-470.69 322.61,-933.65 1940.31,-852.22 2031.61,102.27 1940.29,381.53 1940.29,852.22z"/>
   <path class="fil3" d="M7700.51 14495.1c-378.87,17.34 -684.36,51.9 -757.48,-839.4 -76.51,-933.14 235.76,-884.83 614.63,-902.18 378.89,-17.32 763.47,110.42 757.41,839.43 -7.49,915.53 -235.68,884.84 -614.56,902.15z"/>
   <path class="fil3" d="M852.73 15108.67c-378.87,17.34 -684.36,51.9 -757.48,-839.4 -76.51,-933.18 235.77,-884.85 614.64,-902.15 378.88,-17.35 763.46,110.39 757.4,839.4 -7.49,915.53 -235.67,884.83 -614.56,902.15z"/>
   <path class="fil3" d="M883.77 11782.25c-378.87,17.32 -684.37,51.87 -757.49,-839.43 -76.5,-933.13 235.77,-884.83 614.64,-902.14 378.87,-17.3 763.46,110.39 757.39,839.43 -7.48,915.52 -235.67,884.83 -614.54,902.14z"/>
   <path class="fil5" d="M17601.25 11340.43c-985.93,45.11 -1780.78,135.06 -1971.07,-2184.32 -199.2,-2428.29 613.4,-2302.55 1599.33,-2347.66 985.93,-45.08 1986.76,287.32 1971.06,2184.4 -19.62,2382.44 -613.38,2302.54 -1599.32,2347.58z"/>
   <path class="fil11" d="M9892.63 19924.12c-13.2,-160.66 -48.15,-289.82 1003.23,-337.92 1100.79,-50.34 1037.84,83.32 1051.03,243.98 13.2,160.72 -144.63,326.6 -1003.32,337.96 -1078.31,14.24 -1037.83,-83.32 -1050.94,-244.02z"/>
   <g>
    <path class="fil4" d="M8717.04 3869.24c36.38,-13.12 72.58,-26.57 108.51,-40.56 246.82,-176.96 494.17,-353.59 738.85,-532.26 134.91,-140.52 284.89,-272.61 416.07,-415.02 39.86,-68.85 76.85,-138.7 111.46,-209.13 -2.59,-113.45 -45.84,-221.12 -159.18,-307.6 -0.26,-0.2 -0.44,-0.4 -0.62,-0.57 -419.44,-281.19 -897.21,-494.45 -1410.72,-667.29 -254.59,-85.75 -481.25,-77.43 -672.24,89.08 -325.66,191.56 -651.56,382.77 -976.95,574.66 -106.1,62.61 -168.34,140.2 -165.93,245.57 6.42,280.63 3.21,561.44 13.2,842 6.06,170.65 95.13,239.42 326.36,229.3 322.34,-14.12 612.85,52.73 899.43,147.48 103.53,34.21 210.97,63.17 319.32,88.07 16.32,3.8 31.74,6.33 47.61,9.59 139.73,2.2 274.73,-17.77 404.83,-53.32z"/>
   </g>
   <path class="fil7" d="M10213.46 1708.6c42.98,-271.15 91.32,-542.9 66.61,-813.87 -27.38,-91.62 -64.65,-180.8 -109.41,-268.58 -138.12,-108.46 -314.22,-263.09 -508.09,-281.97 -25.14,3.54 -50.1,8.2 -74.9,14.91 -291.66,79.24 -579.32,166.39 -870.81,245.88 -121.62,33.23 -121.99,104.2 -122.61,178.17 -1.96,229.77 22.03,459.46 -31.56,689.03 -30.67,131.43 76.33,207.06 241.46,246.68 302.65,72.64 602.34,152.13 905.43,223.77 272.31,64.46 470.62,-24.69 503.88,-234.02z"/>
   <path class="fil9" d="M11746.81 2507.29c51.98,-18.11 103.6,-36.89 155.14,-56.07 163.26,-22.23 326.18,-45.64 489.8,-66.44 470.28,-59.73 565.33,-145.35 512.54,-498.95 -59.29,-397.32 -120.02,-790.23 43.6,-1186.11 100.76,-243.75 -15.06,-339.62 -364.78,-318.85 -453.51,26.96 -892.57,-11.98 -1327.18,-102.8 -147.13,-30.83 -298.09,-40.41 -450.93,-35.29 -54.48,1.81 -104.32,8.66 -147.92,22.71 -115.3,89.08 -182.09,217.11 -216.07,348.08 0.45,0.26 0.82,0.59 1.26,0.86 25.85,18.78 17.48,42.95 -3.3,56.86 -0.9,500.77 -1.34,1001.49 -0.1,1502.23 2.24,16.15 4.56,32.36 6.88,48.51 8.64,22.79 19.43,45.17 31.38,67.2 109.95,151.74 320.56,257.4 561.05,320.78 242.45,-12.78 475.71,-55.38 708.63,-102.72z"/>
   <path class="fil6" d="M8026.7 1484.29c-338.48,53.7 -354.45,-45.14 -452.63,-390.55 -98.17,-345.45 -241.46,-806.69 97.02,-860.34 338.58,-53.6 692.57,182.89 790.75,528.37 98.17,345.35 -96.57,668.92 -435.14,722.52z"/>
   <path class="fil6" d="M6887.83 426.61c215.16,-9.85 388.15,-35.96 452.63,749.09 67.41,821.92 -111.65,774.92 -326.81,784.76 -215.26,9.9 -437.37,-107.99 -452.61,-749.15 -19.09,-805.1 111.54,-774.91 326.79,-784.7z"/>
   <path class="fil0" d="M2091.11 2306.38c-363.09,-32.06 -727.08,-68.21 -1089.99,-49.73 -122.7,20.44 -242.09,48.23 -359.7,81.69 -145.18,103.09 -352.32,234.59 -377.63,379.41 4.72,18.73 11.05,37.41 19.97,55.85 106.1,217.78 222.83,432.61 329.3,650.24 44.49,90.79 139.55,91.06 238.61,91.52 307.72,1.5 615.35,-16.44 922.8,23.57 176.02,22.9 277.32,-56.99 330.37,-180.26 97.29,-226.01 203.76,-449.78 299.69,-676.08 86.32,-203.31 -33.08,-351.41 -313.42,-376.21z"/>
   <path class="fil2" d="M3160.77 1161.44c-24.25,-38.74 -49.3,-77.36 -74.99,-115.81 -29.78,-121.9 -61.16,-243.58 -88.99,-365.75 -79.97,-351.14 -194.65,-422.11 -668.22,-382.7 -532.16,44.31 -1058.35,89.62 -1588.54,-32.56 -326.45,-75.23 -454.85,11.25 -427.03,272.38 36.12,338.65 -16.04,666.5 -137.67,991 -41.29,109.86 -54.13,222.54 -47.26,336.66 2.41,40.67 11.6,77.96 30.4,110.49 119.31,86.09 290.69,135.92 466.1,161.28 0.44,-0.3 0.79,-0.6 1.24,-0.86 25.05,-19.34 57.51,-13.12 76.15,2.43 670.63,0.67 1341.17,1 2011.82,0.07 21.66,-1.67 43.33,-3.43 64.99,-5.12 30.59,-6.47 60.55,-14.49 89.98,-23.48 203.22,-82.02 344.72,-239.36 429.62,-418.91 -17.13,-180.97 -74.11,-355.17 -137.6,-529.12z"/>
   <path class="fil3" d="M1790.79 3939.14c71.88,252.8 -60.45,264.66 -523.16,337.99 -462.6,73.3 -1080.26,180.26 -1152.14,-72.47 -71.86,-252.74 244.96,-517.06 707.56,-590.36 462.6,-73.37 895.88,72.08 967.74,324.84z"/>
   <path class="fil3" d="M374.18 4789.49c-13.2,-160.65 -48.07,-289.81 1003.22,-337.89 1100.79,-50.33 1037.93,83.3 1051.13,243.98 13.2,160.69 -144.64,326.57 -1003.32,337.93 -1078.33,14.28 -1037.83,-83.29 -1051.03,-244.02z"/>
  </g>
 </g>
</svg>
